{"glyphs":{"0":{"ha":938,"x_min":71,"x_max":843,"o":"m 685 485 q 625 194 685 299 q 457 89 565 89 q 288 194 347 89 q 228 485 228 299 q 288 777 228 671 q 457 883 347 883 q 553 856 511 883 q 625 776 596 828 q 669 651 654 725 q 685 485 685 578 m 457 -24 q 613 11 542 -24 q 735 112 683 46 q 815 272 786 178 q 843 485 843 365 q 817 688 843 594 q 742 849 792 781 q 621 957 693 918 q 456 996 549 996 q 296 959 367 996 q 175 856 225 922 q 98 694 125 789 q 71 485 71 600 q 99 274 71 368 q 177 113 126 179 q 299 12 228 47 q 457 -24 369 -24 "},"1":{"ha":443,"x_min":-12,"x_max":340,"o":"m 340 0 l 340 974 l 282 974 l -12 815 l 39 721 l 194 803 l 194 0 l 340 0 "},"2":{"ha":735,"x_min":74,"x_max":679,"o":"m 663 733 q 639 841 663 793 q 574 921 615 889 q 474 970 532 953 q 349 988 417 988 q 236 976 294 988 q 113 931 178 964 l 151 828 q 252 865 207 856 q 333 875 297 875 q 400 865 368 875 q 456 834 432 854 q 493 785 479 814 q 507 718 507 756 q 485 624 507 672 q 428 526 464 576 q 347 421 393 475 q 253 309 301 367 q 158 190 206 251 q 74 61 111 128 l 74 0 l 679 0 l 679 122 l 286 122 l 256 118 l 276 142 q 346 231 306 185 q 428 324 386 276 q 513 423 471 372 q 588 525 556 474 q 642 628 621 576 q 663 733 663 681 "},"3":{"ha":733,"x_min":32,"x_max":633,"o":"m 600 767 q 579 858 600 817 q 521 928 558 899 q 432 973 483 957 q 319 989 381 989 q 201 977 263 989 q 69 931 139 965 l 108 828 q 214 867 167 857 q 301 876 261 876 q 403 842 363 876 q 444 747 444 807 q 421 675 444 706 q 360 622 397 644 q 280 581 324 599 q 194 546 236 563 l 207 458 q 315 450 265 458 q 401 422 365 442 q 456 369 436 403 q 476 285 476 335 q 463 218 476 251 q 422 158 449 185 q 358 114 396 131 q 272 97 319 97 q 160 113 214 97 q 68 150 107 129 l 32 50 q 140 6 76 26 q 282 -15 203 -15 q 422 8 357 -15 q 533 72 486 32 q 606 167 579 113 q 633 282 633 221 q 619 369 633 329 q 579 440 604 408 q 522 495 554 472 q 456 531 490 518 l 425 538 l 460 550 q 563 644 526 588 q 600 767 600 700 "},"4":{"ha":826,"x_min":54,"x_max":758,"o":"m 54 310 l 54 211 l 458 211 q 442 244 453 225 q 414 281 431 264 q 375 310 397 299 q 324 322 353 322 l 218 322 q 207 321 213 321 q 194 319 201 321 l 211 339 q 227 361 219 350 q 242 383 235 372 l 490 751 l 511 788 l 508 747 l 508 0 l 647 0 l 647 211 l 758 211 l 758 321 l 647 321 l 647 974 l 493 974 l 54 310 "},"5":{"ha":744,"x_min":53,"x_max":656,"o":"m 244 851 l 614 851 l 614 974 l 132 974 l 97 451 q 194 470 144 464 q 279 476 243 476 q 438 432 376 476 q 500 293 500 388 q 489 225 500 260 q 453 162 478 190 q 390 115 429 133 q 296 97 351 97 q 202 109 256 97 q 89 153 149 121 l 53 51 q 112 22 81 35 q 176 1 143 10 q 240 -11 208 -7 q 297 -15 271 -15 q 447 9 381 -15 q 560 75 514 33 q 631 172 606 117 q 656 290 656 228 q 634 402 656 349 q 570 497 613 456 q 463 563 528 538 q 314 588 399 588 q 269 585 290 588 q 224 579 247 582 l 229 654 q 237 752 232 703 q 244 851 242 801 "},"6":{"ha":897,"x_min":97,"x_max":797,"o":"m 574 869 q 631 865 601 869 q 696 847 661 861 l 731 950 q 649 974 689 967 q 574 982 608 982 q 372 936 461 982 q 222 816 283 890 q 129 647 161 742 q 97 453 97 551 q 117 279 97 364 q 180 128 136 194 q 295 20 224 61 q 471 -21 367 -21 q 606 7 546 -21 q 708 81 665 35 q 774 185 751 126 q 797 303 797 243 q 775 431 797 375 q 714 524 753 486 q 622 580 675 561 q 508 599 569 599 q 420 585 464 599 q 308 538 376 572 q 333 514 318 526 q 366 492 347 501 q 407 479 385 483 q 454 481 429 475 q 481 486 469 485 q 501 488 492 488 q 600 441 560 488 q 640 303 640 394 q 627 219 640 257 q 591 152 614 181 q 537 108 568 124 q 468 92 506 92 q 361 127 403 92 q 295 217 319 163 q 262 335 271 271 q 253 456 253 399 q 276 621 253 544 q 340 752 299 697 q 441 838 382 807 q 574 869 500 869 "},"7":{"ha":697,"x_min":53,"x_max":650,"o":"m 325 0 q 372 293 340 165 q 446 522 403 421 q 541 705 489 624 q 650 860 593 786 l 650 974 l 53 974 l 53 846 l 492 847 q 462 803 476 825 q 433 761 447 782 q 263 401 326 586 q 171 0 200 217 l 325 0 "},"8":{"ha":872,"x_min":113,"x_max":779,"o":"m 444 93 q 306 137 361 93 q 251 260 251 181 q 269 325 251 289 q 272 406 286 365 q 229 479 257 446 q 135 349 158 404 q 113 247 113 294 q 138 133 113 183 q 208 49 164 83 q 313 -2 253 15 q 444 -19 374 -19 q 574 -2 513 -19 q 681 49 635 15 q 753 133 726 83 q 779 247 779 183 q 734 403 779 344 q 622 499 689 463 q 712 613 676 551 q 747 738 747 675 q 724 844 747 797 q 659 923 700 890 q 564 973 618 956 q 449 990 510 990 q 334 973 389 990 q 238 923 279 956 q 171 844 196 890 q 146 738 146 797 q 182 603 146 656 q 272 517 218 551 q 390 457 326 482 q 508 405 454 432 q 599 342 563 378 q 635 247 635 306 q 583 137 635 181 q 444 93 531 93 m 290 738 q 303 797 290 771 q 339 840 317 822 q 390 867 361 858 q 449 876 418 876 q 506 867 478 876 q 557 839 535 858 q 593 790 579 819 q 607 721 607 761 q 582 633 606 674 q 517 550 558 592 q 433 586 474 568 q 360 625 392 604 q 310 673 329 646 q 290 738 290 700 "},"9":{"ha":896,"x_min":96,"x_max":797,"o":"m 319 99 q 263 104 293 99 q 199 122 232 110 l 163 21 q 244 -6 204 3 q 319 -14 285 -14 q 521 32 432 -14 q 672 153 610 78 q 765 323 733 228 q 797 517 797 418 q 778 689 797 604 q 715 840 758 774 q 599 948 671 907 q 422 989 526 989 q 288 961 347 989 q 185 888 228 933 q 119 785 142 843 q 96 667 96 726 q 118 539 96 594 q 179 446 140 483 q 272 390 218 408 q 386 371 325 371 q 428 374 407 371 q 473 383 450 376 q 524 401 496 390 q 585 431 551 413 q 561 456 575 443 q 528 477 547 468 q 487 490 510 486 q 439 488 464 493 q 412 483 424 485 q 392 482 400 482 q 294 528 333 482 q 254 667 254 575 q 267 749 254 711 q 302 816 279 788 q 356 860 325 844 q 426 876 388 876 q 533 841 492 876 q 599 752 575 806 q 631 635 622 699 q 640 514 640 571 q 618 348 640 424 q 554 217 596 272 q 453 130 513 161 q 319 99 393 99 "},"b":{"ha":819,"x_min":111,"x_max":750,"o":"m 307 692 q 354 634 329 656 q 415 615 379 613 q 547 553 500 621 q 594 369 594 486 q 581 258 594 308 q 540 173 567 208 q 476 117 514 138 q 392 97 439 97 q 326 101 361 97 q 258 117 292 106 l 258 1053 l 111 1053 l 111 57 q 247 2 178 19 q 392 -15 315 -15 q 538 13 472 -15 q 651 93 604 42 q 724 215 699 144 q 750 369 750 286 q 727 518 750 451 q 665 631 704 585 q 572 703 625 678 q 460 728 519 728 q 386 718 428 728 q 307 692 344 708 "},"o":{"ha":804,"x_min":53,"x_max":744,"o":"m 210 360 q 224 472 210 424 q 265 554 239 521 q 324 604 290 588 q 399 621 358 621 q 533 554 479 621 q 586 360 586 488 q 575 258 586 306 q 540 175 564 211 q 481 118 517 139 q 399 97 446 97 q 319 117 354 97 q 259 171 283 136 q 222 253 235 206 q 210 360 210 301 m 53 360 q 81 199 53 269 q 155 81 108 129 q 265 9 201 33 q 399 -15 328 -15 q 529 10 467 -15 q 640 83 592 35 q 716 200 688 131 q 744 360 744 269 q 721 508 744 439 q 652 626 697 576 q 543 705 607 676 q 399 733 479 733 q 276 711 338 733 q 165 642 214 689 q 84 526 115 596 q 53 360 53 456 "},"e":{"ha":764,"x_min":74,"x_max":696,"o":"m 386 440 q 313 412 340 440 q 271 342 286 383 l 671 342 q 688 492 696 421 q 644 616 679 563 q 551 701 608 669 q 421 733 493 733 q 279 708 343 733 q 169 635 215 682 q 99 519 124 588 q 74 367 74 451 q 97 219 74 289 q 164 98 119 150 q 272 15 208 46 q 418 -15 336 -15 q 535 -3 472 -15 q 669 46 599 10 l 631 147 q 526 108 569 118 q 435 97 483 97 q 349 117 389 97 q 281 172 310 136 q 237 257 253 207 q 221 368 221 307 q 275 559 221 494 q 408 624 329 624 q 469 609 442 624 q 515 569 496 594 q 543 511 535 544 q 547 440 551 478 l 386 440 "},"h":{"ha":819,"x_min":111,"x_max":711,"o":"m 560 0 l 711 0 l 711 510 q 695 615 711 572 q 653 684 679 658 q 591 722 626 710 q 517 733 556 733 q 429 719 478 733 q 308 663 381 706 q 342 626 324 640 q 381 608 360 611 q 408 607 394 606 q 435 611 422 608 q 462 617 449 614 q 488 619 475 619 q 542 591 525 619 q 560 518 560 563 l 560 0 m 258 0 l 258 1053 l 111 1053 l 111 0 l 258 0 "},"i":{"ha":365,"x_min":90,"x_max":275,"o":"m 90 926 q 117 861 90 888 q 182 835 143 835 q 249 861 222 835 q 275 926 275 888 q 249 994 275 967 q 182 1021 222 1021 q 117 994 143 1021 q 90 926 90 967 m 258 0 l 258 718 l 107 718 l 107 0 l 258 0 "},"l":{"ha":364,"x_min":114,"x_max":260,"o":"m 260 1053 l 114 1053 l 114 0 l 260 0 l 260 1053 "}," ":{"ha":357,"x_min":0,"x_max":0,"o":""},"m":{"ha":1264,"x_min":93,"x_max":1156,"o":"m 1006 0 l 1156 0 l 1156 510 q 1139 615 1156 572 q 1094 684 1122 658 q 1028 722 1065 710 q 953 733 992 733 q 860 719 913 733 q 732 664 807 704 q 766 626 747 642 q 808 608 785 611 q 838 607 822 606 q 867 611 853 608 q 897 617 882 614 q 924 619 911 619 q 986 591 967 619 q 1006 518 1006 563 l 1006 0 m 560 0 l 711 0 l 711 510 q 695 615 711 572 q 653 684 679 658 q 590 722 626 710 q 515 733 554 733 q 425 719 475 733 q 300 665 375 706 q 335 628 317 643 q 375 610 353 613 q 429 611 401 603 q 485 619 457 619 q 542 591 525 619 q 560 518 560 563 l 560 0 m 93 718 q 109 626 104 669 q 114 543 114 582 l 114 0 l 265 0 l 265 565 q 255 644 265 607 q 211 718 244 681 l 93 718 "},"j":{"ha":394,"x_min":-39,"x_max":303,"o":"m 283 718 l 133 718 l 133 58 q 127 -31 133 8 q 102 -105 121 -69 q 50 -178 83 -140 q -39 -262 17 -215 l 28 -344 q 156 -242 106 -290 q 234 -147 206 -194 q 273 -50 263 -100 q 283 58 283 0 l 283 718 m 117 926 q 142 860 117 886 q 207 835 167 835 q 276 860 249 835 q 303 926 303 886 q 276 994 303 967 q 207 1021 249 1021 q 142 994 167 1021 q 117 926 117 967 "},"p":{"ha":840,"x_min":96,"x_max":774,"o":"m 774 356 q 753 505 774 436 q 692 624 732 574 q 596 704 653 675 q 465 733 539 733 q 370 714 422 733 q 271 646 318 694 l 257 621 l 254 644 q 233 688 244 671 q 204 718 222 704 l 96 718 q 112 611 107 669 q 117 474 117 553 l 117 -335 l 264 -335 l 264 521 q 440 621 347 621 q 516 601 483 621 q 571 545 549 581 q 605 461 593 510 q 617 356 617 413 q 564 165 617 228 q 435 101 511 101 q 361 77 390 101 q 313 14 332 53 q 389 -5 354 0 q 457 -10 424 -10 q 576 17 518 -10 q 677 92 633 44 q 747 208 721 140 q 774 356 774 275 "},"r":{"ha":543,"x_min":90,"x_max":513,"o":"m 90 718 q 108 601 103 664 q 113 479 113 539 l 113 0 l 253 0 l 253 369 q 267 473 253 429 q 305 546 281 517 q 360 590 329 575 q 424 604 390 604 q 494 594 450 604 l 513 717 q 438 729 471 729 q 336 696 385 729 q 260 610 288 663 l 247 582 l 247 610 q 231 671 240 643 q 201 718 221 699 l 90 718 "},"u":{"ha":826,"x_min":97,"x_max":717,"o":"m 246 718 l 97 718 l 97 208 q 113 103 97 146 q 157 34 129 60 q 220 -3 185 8 q 296 -15 256 -15 q 387 -1 336 -15 q 511 56 438 14 q 469 95 492 79 q 419 113 447 111 q 369 106 393 113 q 324 99 344 99 q 265 127 283 99 q 246 200 246 156 l 246 718 m 717 0 q 694 175 694 94 l 694 718 l 547 718 l 547 153 q 558 74 547 111 q 601 0 568 38 l 717 0 "},"w":{"ha":1199,"x_min":50,"x_max":1176,"o":"m 924 0 l 1176 718 l 1024 718 l 847 136 l 669 718 l 511 718 l 764 0 l 924 0 m 550 222 q 566 297 564 258 q 563 373 568 336 q 544 441 557 410 q 515 493 532 472 l 396 174 l 386 136 l 208 718 l 50 718 l 304 0 l 457 0 l 550 222 "},"x":{"ha":699,"x_min":22,"x_max":669,"o":"m 261 131 q 278 179 275 154 q 277 228 282 204 q 261 273 272 251 q 236 311 250 294 l 22 0 l 179 0 l 261 131 m 669 0 l 418 363 l 656 718 l 497 718 l 358 483 l 347 454 l 339 483 l 203 718 l 35 718 l 274 356 q 390 178 333 267 q 504 0 447 90 l 669 0 "},"q":{"ha":818,"x_min":72,"x_max":706,"o":"m 513 42 q 400 106 464 110 q 324 119 356 101 q 271 172 292 138 q 240 251 250 206 q 229 349 229 297 q 289 549 229 478 q 450 621 349 621 q 503 617 476 621 q 561 606 529 614 l 561 -335 l 706 -335 l 706 689 q 565 724 624 714 q 449 733 507 733 q 294 705 364 733 q 176 625 225 676 q 99 503 126 574 q 72 349 72 433 q 95 203 72 271 q 158 88 118 136 q 251 13 197 39 q 368 -10 306 -14 q 438 6 400 -7 q 513 42 476 18 "},".":{"ha":411,"x_min":108,"x_max":293,"o":"m 108 71 q 134 5 108 31 q 200 -21 160 -21 q 267 5 240 -21 q 293 71 293 31 q 267 138 293 111 q 200 164 240 164 q 134 138 160 164 q 108 71 108 111 "},":":{"ha":415,"x_min":119,"x_max":304,"o":"m 119 590 q 145 526 119 551 q 211 500 171 500 q 278 526 251 500 q 304 590 304 551 q 278 658 304 631 q 211 685 251 685 q 145 658 171 685 q 119 590 119 631 m 119 71 q 145 5 119 31 q 211 -21 171 -21 q 278 5 251 -21 q 304 71 304 31 q 278 138 304 111 q 211 164 251 164 q 145 138 171 164 q 119 71 119 111 "},"!":{"ha":488,"x_min":67,"x_max":253,"o":"m 68 71 q 93 5 67 31 q 160 -21 119 -21 q 226 5 200 -21 q 253 71 253 31 q 226 138 253 111 q 160 165 200 165 q 94 138 119 165 q 68 71 68 111 m 88 1010 l 107 275 l 215 275 l 238 1010 l 88 1010 "},"\"":{"ha":533,"x_min":67,"x_max":456,"o":"m 321 725 q 385 731 360 717 q 427 772 411 744 q 449 833 443 799 q 456 901 456 868 l 456 1010 l 321 1010 l 321 725 m 67 725 q 132 731 106 717 q 174 772 158 744 q 195 833 189 799 q 201 901 201 868 l 201 1010 l 67 1010 l 67 725 "},"#":{"ha":1242,"x_min":107,"x_max":1061,"o":"m 646 0 l 765 0 l 808 225 l 979 225 l 979 324 l 826 324 l 889 654 l 1061 654 l 1061 753 l 908 753 l 950 975 l 831 975 l 788 753 l 482 753 l 524 975 l 404 975 l 363 753 l 189 753 l 189 654 l 344 654 l 333 601 l 279 324 l 107 324 l 107 225 l 264 225 l 254 181 q 236 90 244 136 q 219 0 228 44 l 339 0 l 464 654 l 771 654 l 758 600 l 706 324 l 599 324 q 530 318 558 324 q 483 301 501 313 q 451 270 464 289 q 429 225 439 251 l 690 225 l 679 179 q 662 90 671 135 q 646 0 653 44 "},"%":{"ha":1131,"x_min":31,"x_max":1115,"o":"m 986 265 q 960 119 986 167 q 886 72 933 72 q 815 119 842 72 q 788 265 788 167 q 815 409 788 361 q 886 457 842 457 q 960 409 933 457 q 986 265 986 361 m 1115 265 q 1051 474 1115 400 q 886 547 988 547 q 721 474 783 547 q 658 265 658 400 q 721 56 658 129 q 886 -18 783 -18 q 1051 56 988 -18 q 1115 265 1115 131 m 358 713 q 332 568 358 615 q 260 521 306 521 q 187 568 214 521 q 160 713 160 615 q 187 857 160 810 q 260 904 214 904 q 332 857 306 904 q 358 713 358 810 m 488 713 q 471 832 488 779 q 424 922 454 885 q 351 977 393 958 q 260 996 310 996 q 93 922 156 996 q 31 713 31 847 q 93 503 31 576 q 260 429 156 429 q 351 448 310 429 q 424 503 393 467 q 471 593 454 540 q 488 713 488 646 m 211 0 l 325 0 l 933 975 l 819 975 l 211 0 "},"(":{"ha":560,"x_min":242,"x_max":561,"o":"m 372 411 q 376 610 372 526 q 399 761 381 694 q 456 882 418 828 q 561 990 494 936 l 496 1065 q 366 951 415 1011 q 289 814 317 890 q 251 639 261 738 q 242 411 242 540 q 251 183 242 281 q 289 8 261 85 q 366 -130 317 -69 q 496 -244 415 -190 l 561 -168 q 456 -60 494 -114 q 399 60 418 -7 q 376 211 381 126 q 372 411 372 296 "},")":{"ha":557,"x_min":1,"x_max":319,"o":"m 190 411 q 185 211 190 296 q 162 60 181 126 q 106 -60 143 -7 q 1 -168 68 -114 l 67 -244 q 197 -130 147 -190 q 273 8 246 -69 q 310 183 300 85 q 319 411 319 281 q 310 639 319 540 q 273 814 300 738 q 197 951 246 890 q 67 1065 147 1011 l 1 990 q 106 882 68 936 q 162 761 143 828 q 185 610 181 694 q 190 411 190 526 "},"*":{"ha":736,"x_min":71,"x_max":625,"o":"m 347 819 l 258 1028 l 156 968 l 294 790 l 71 818 l 71 699 l 294 728 l 158 547 l 261 489 l 349 697 l 435 489 l 538 547 l 400 726 q 422 723 408 725 q 461 718 436 721 q 526 710 486 715 q 625 699 565 706 l 625 817 l 401 789 q 415 807 407 796 q 439 838 424 818 q 478 890 454 858 q 539 968 503 921 l 436 1028 l 347 819 "},"+":{"ha":789,"x_min":65,"x_max":715,"o":"m 65 372 l 332 372 l 332 86 l 447 86 l 447 372 l 715 372 l 715 475 l 447 475 l 447 758 l 332 758 l 332 475 l 65 475 l 65 372 "},"<":{"ha":851,"x_min":51,"x_max":769,"o":"m 228 375 l 192 383 l 228 393 q 499 513 365 451 q 769 635 633 574 l 769 767 l 51 426 l 51 340 l 769 0 l 769 132 l 228 375 "},"^":{"ha":872,"x_min":104,"x_max":772,"o":"m 431 790 l 439 829 l 447 790 q 460 760 454 775 q 472 729 465 744 l 644 292 l 772 292 l 483 1010 l 393 1010 l 104 292 l 235 292 l 431 790 "},"`":{"ha":272,"x_min":28,"x_max":268,"o":"m 128 876 q 190 834 154 843 q 268 836 226 825 l 176 1010 l 28 1010 l 128 876 "},"_":{"ha":690,"x_min":38,"x_max":653,"o":"m 653 -100 l 653 0 l 38 0 l 38 -100 l 653 -100 "},"|":{"ha":440,"x_min":160,"x_max":289,"o":"m 289 -407 l 289 1126 l 160 1126 l 160 -407 l 289 -407 "},"/":{"ha":461,"x_min":4,"x_max":469,"o":"m 132 -86 l 469 1010 l 342 1010 l 4 -86 l 132 -86 "},"'":{"ha":265,"x_min":64,"x_max":194,"o":"m 64 725 q 128 731 103 717 q 169 772 154 744 q 189 833 183 799 q 194 901 194 868 l 194 1010 l 64 1010 l 64 725 "},",":{"ha":297,"x_min":78,"x_max":213,"o":"m 78 -149 q 143 -143 117 -157 q 185 -102 169 -129 q 206 -40 200 -75 q 213 28 213 -6 l 213 136 l 78 136 l 78 -149 "},"-":{"ha":521,"x_min":63,"x_max":482,"o":"m 482 372 l 482 475 l 63 475 l 63 372 l 482 372 "},"A":{"ha":968,"x_min":47,"x_max":922,"o":"m 410 1010 l 47 0 l 197 0 l 278 236 l 614 236 q 597 277 607 257 q 571 313 586 297 q 535 339 556 329 q 489 349 515 349 l 325 349 l 308 346 l 324 374 l 468 794 l 479 839 l 489 796 l 761 0 l 922 0 l 558 1010 l 410 1010 "},"B":{"ha":907,"x_min":118,"x_max":839,"o":"m 457 100 q 412 96 432 103 q 376 75 392 89 q 347 44 360 61 q 324 8 333 26 q 427 -12 386 -7 q 508 -17 468 -17 q 647 10 586 -17 q 751 81 708 38 q 817 177 794 124 q 839 285 839 231 q 794 431 839 367 q 669 529 749 494 l 631 539 l 671 558 q 716 598 696 575 q 750 647 736 621 q 772 702 764 674 q 779 756 779 731 q 756 864 779 814 q 688 950 733 914 q 576 1007 643 986 q 418 1028 508 1028 q 275 1020 343 1028 q 118 996 207 1013 l 118 0 l 268 0 l 268 476 l 418 476 q 520 464 472 476 q 603 427 568 451 q 659 366 639 403 q 679 281 679 329 q 665 207 679 240 q 627 149 651 174 q 571 110 603 124 q 501 96 539 96 q 479 97 489 96 q 457 100 469 97 m 268 582 l 268 906 q 418 914 343 914 q 508 901 469 914 q 573 866 547 888 q 611 815 599 844 q 624 754 624 786 q 569 631 624 679 q 418 582 514 582 l 268 582 "},"D":{"ha":1004,"x_min":121,"x_max":979,"o":"m 511 -17 q 693 23 608 -17 q 842 133 778 63 q 942 299 906 203 q 979 507 979 394 q 942 726 979 629 q 832 890 904 822 q 656 992 760 957 q 417 1028 551 1028 q 276 1019 356 1028 q 121 993 196 1011 l 121 0 l 272 0 l 272 904 q 342 911 304 908 q 417 914 379 914 q 719 806 621 914 q 817 507 817 697 q 794 351 817 425 q 731 219 772 276 q 633 129 690 163 q 504 96 575 96 q 484 96 493 96 q 460 97 475 96 q 377 72 410 100 q 326 7 344 43 q 426 -12 386 -8 q 511 -17 467 -17 "},"E":{"ha":806,"x_min":121,"x_max":726,"o":"m 450 585 q 403 575 424 585 q 368 550 383 565 q 342 515 353 535 q 325 475 332 496 l 658 475 l 658 585 l 450 585 m 121 0 l 726 0 l 726 113 l 272 113 l 272 897 l 706 897 l 706 1010 l 121 1010 l 121 0 "},"F":{"ha":800,"x_min":121,"x_max":706,"o":"m 450 585 q 403 575 424 585 q 368 550 383 565 q 342 515 353 535 q 325 475 332 496 l 658 475 l 658 585 l 450 585 m 121 0 l 272 0 l 272 897 l 706 897 l 706 1010 l 121 1010 l 121 0 "},"I":{"ha":389,"x_min":121,"x_max":268,"o":"m 268 1010 l 121 1010 l 121 0 l 268 0 l 268 1010 "},"J":{"ha":488,"x_min":-8,"x_max":374,"o":"m 374 1010 l 222 1010 l 222 178 q 206 44 222 99 q 159 -52 189 -10 q 86 -131 129 -94 q -8 -211 43 -168 l 57 -294 q 190 -199 132 -244 q 290 -100 249 -153 q 352 19 331 -47 q 374 178 374 85 l 374 1010 "},"K":{"ha":938,"x_min":121,"x_max":911,"o":"m 272 0 l 272 1010 l 121 1010 l 121 0 l 272 0 m 864 1010 l 694 1010 q 537 797 617 904 q 386 585 457 689 q 355 522 367 556 q 338 456 343 489 q 336 393 333 424 q 347 338 339 363 l 451 472 l 465 499 l 475 472 l 732 0 l 911 0 l 551 603 l 864 1010 "},"L":{"ha":726,"x_min":121,"x_max":679,"o":"m 121 0 l 678 0 q 678 57 678 28 q 679 114 679 86 l 274 114 l 274 1010 l 121 1010 l 121 0 "},"M":{"ha":1332,"x_min":97,"x_max":1233,"o":"m 97 0 l 239 0 l 314 857 l 332 796 l 592 14 l 739 14 l 997 794 l 1014 857 l 1018 794 l 1090 0 l 1233 0 l 1126 1010 l 932 1010 l 676 208 l 667 163 l 657 208 l 400 1010 l 206 1010 l 97 0 "},"P":{"ha":860,"x_min":121,"x_max":790,"o":"m 790 719 q 763 842 790 786 q 687 940 736 899 q 568 1004 638 981 q 415 1028 499 1028 q 343 1026 378 1028 q 274 1022 308 1025 q 203 1013 240 1018 q 121 999 165 1007 l 121 1 l 272 0 l 272 907 q 343 913 310 911 q 415 915 376 915 q 501 900 461 915 q 569 859 540 885 q 615 797 599 833 q 632 719 632 761 q 616 643 632 678 q 574 582 600 608 q 515 541 549 556 q 449 525 482 526 q 374 494 404 524 q 328 429 343 465 q 401 416 367 418 q 467 417 436 414 q 588 445 529 422 q 691 506 646 468 q 763 599 736 544 q 790 719 790 653 "},"R":{"ha":914,"x_min":121,"x_max":831,"o":"m 790 728 q 763 847 790 792 q 686 943 736 903 q 567 1006 636 983 q 415 1029 499 1029 q 343 1027 378 1029 q 274 1022 308 1025 q 203 1012 240 1018 q 121 997 165 1006 l 121 0 l 272 0 l 272 904 q 348 914 319 913 q 415 915 376 915 q 499 901 460 915 q 568 861 539 886 q 615 801 597 836 q 632 728 632 767 q 616 654 632 688 q 574 596 600 621 q 515 556 549 571 q 449 540 482 542 q 374 508 404 538 q 328 443 343 479 q 390 432 360 435 q 446 431 419 429 q 459 431 453 431 q 472 432 465 431 q 550 360 522 408 q 597 251 578 311 q 631 124 615 190 q 674 0 646 58 l 831 0 q 780 144 797 72 q 742 278 763 215 q 690 391 721 342 q 599 469 658 440 l 633 482 q 747 581 704 518 q 790 728 790 644 "},"T":{"ha":751,"x_min":13,"x_max":736,"o":"m 297 897 l 297 0 l 450 0 l 450 897 l 736 897 l 736 1010 l 13 1010 l 13 897 l 297 897 "},"V":{"ha":890,"x_min":17,"x_max":879,"o":"m 528 0 l 879 1010 l 722 1010 l 461 197 l 451 151 l 442 199 l 179 1010 l 17 1010 l 371 0 l 528 0 "},"W":{"ha":1385,"x_min":33,"x_max":1353,"o":"m 615 996 l 411 213 l 396 142 l 385 213 l 183 1010 l 33 1010 l 308 0 l 481 0 l 683 776 l 694 832 l 707 774 l 911 0 l 1078 0 l 1353 1010 l 1206 1010 l 1006 210 l 994 142 l 981 213 l 779 996 l 615 996 "},"n":{"ha":821,"x_min":83,"x_max":710,"o":"m 558 0 l 710 0 l 710 510 q 693 615 710 572 q 648 684 676 658 q 583 722 619 710 q 507 733 546 733 q 416 719 467 733 q 293 663 365 704 q 326 626 308 642 q 367 608 344 611 q 395 607 381 606 q 424 611 410 608 q 451 617 438 614 q 479 619 465 619 q 539 591 519 619 q 558 518 558 563 l 558 0 m 83 718 q 106 543 106 624 l 106 0 l 256 0 l 256 565 q 245 644 256 607 q 201 718 235 681 l 83 718 "},"?":{"ha":810,"x_min":140,"x_max":663,"o":"m 242 71 q 268 5 242 31 q 333 -21 294 -21 q 400 5 374 -21 q 426 71 426 31 q 400 138 426 111 q 333 165 374 165 q 268 138 294 165 q 242 71 242 111 m 381 1024 q 265 1013 322 1024 q 140 967 208 1001 l 181 863 q 283 902 239 893 q 367 911 326 911 q 469 876 429 911 q 508 789 508 842 q 491 711 508 746 q 448 643 474 676 q 392 575 422 610 q 335 498 361 540 q 292 401 310 456 q 275 275 275 347 l 394 275 q 415 381 394 333 q 464 469 435 428 q 528 547 493 510 q 593 625 564 585 q 642 710 622 665 q 663 810 663 754 q 642 896 663 857 q 584 963 621 935 q 495 1008 547 992 q 381 1024 443 1024 "},";":{"ha":415,"x_min":119,"x_max":304,"o":"m 144 -149 q 210 -143 183 -157 q 252 -102 236 -129 q 274 -40 268 -75 q 281 28 281 -6 l 281 136 l 144 136 l 144 -149 m 119 590 q 145 526 119 551 q 211 500 171 500 q 278 526 251 500 q 304 590 304 551 q 278 658 304 631 q 211 685 251 685 q 145 658 171 685 q 119 590 119 631 "},"=":{"ha":842,"x_min":93,"x_max":749,"o":"m 93 546 l 749 546 l 749 651 l 93 651 l 93 546 m 93 239 l 749 239 l 749 344 l 93 344 l 93 239 "},"[":{"ha":621,"x_min":192,"x_max":568,"o":"m 192 -276 l 568 -276 l 568 -164 l 331 -164 l 331 958 l 568 958 l 568 1071 l 192 1071 l 192 -276 "},"]":{"ha":631,"x_min":68,"x_max":444,"o":"m 444 1071 l 69 1071 l 69 958 l 307 958 l 307 -164 l 68 -164 q 69 -220 68 -192 q 69 -276 69 -249 l 444 -276 l 444 1071 "},"\\":{"ha":507,"x_min":19,"x_max":493,"o":"m 493 -86 l 156 1010 l 19 1010 l 357 -86 l 493 -86 "},"{":{"ha":560,"x_min":106,"x_max":557,"o":"m 240 265 q 261 98 246 172 q 306 -37 276 24 q 380 -149 335 -99 q 492 -244 425 -200 l 557 -168 q 481 -94 513 -132 q 428 -14 449 -56 q 394 76 407 28 q 376 181 382 124 q 372 218 375 200 q 367 254 369 236 q 334 340 360 303 q 268 406 308 378 l 233 421 l 268 436 q 340 508 313 465 q 372 610 368 551 q 388 724 376 672 q 421 822 400 776 q 475 909 442 868 q 557 990 508 950 l 492 1065 q 383 973 428 1022 q 310 865 339 924 q 265 736 281 807 q 243 581 249 665 q 199 503 239 532 q 106 465 158 475 l 106 381 q 198 342 158 371 q 240 265 238 314 "},"}":{"ha":569,"x_min":111,"x_max":563,"o":"m 428 265 q 471 342 432 314 q 563 381 510 371 l 563 465 q 469 503 510 475 q 425 581 429 532 q 403 736 418 665 q 358 865 388 807 q 285 973 329 924 q 178 1065 242 1022 l 111 990 q 193 909 160 950 q 248 822 226 868 q 281 724 269 776 q 297 610 293 672 q 329 508 301 551 q 401 436 357 465 l 436 421 l 403 407 q 350 363 369 386 q 319 312 331 339 q 301 252 307 285 q 292 181 296 219 q 274 76 286 124 q 241 -14 263 28 q 188 -94 219 -56 q 111 -168 156 -132 l 178 -244 q 290 -149 244 -200 q 364 -37 335 -99 q 408 98 393 24 q 428 265 422 172 "},"&":{"ha":1057,"x_min":165,"x_max":999,"o":"m 546 108 q 515 100 528 103 q 486 97 501 97 q 359 156 403 97 q 315 308 315 215 q 340 410 315 369 q 401 490 365 451 l 442 439 l 818 0 l 999 0 l 822 203 q 892 354 865 274 q 938 526 918 435 l 821 526 q 790 406 810 460 q 743 294 771 353 l 517 561 q 465 623 488 594 q 425 678 442 651 q 400 732 408 706 q 392 789 392 758 q 432 876 392 842 q 535 911 472 911 q 619 903 572 911 q 706 878 667 894 l 742 976 q 638 1012 693 1000 q 538 1024 583 1024 q 420 1006 472 1024 q 332 955 368 988 q 276 876 296 922 q 256 776 256 831 q 273 683 256 731 q 331 578 290 636 q 214 456 263 526 q 165 290 165 385 q 186 174 165 229 q 245 76 207 118 q 339 10 283 35 q 465 -15 394 -15 q 593 6 538 -15 q 697 67 649 28 q 628 108 665 96 q 546 108 592 119 "},"~":{"ha":853,"x_min":88,"x_max":790,"o":"m 214 317 q 242 399 218 371 q 296 426 265 426 q 364 408 333 426 q 427 369 394 390 q 497 331 460 349 q 586 314 535 314 q 660 325 625 314 q 724 360 696 336 q 769 424 751 383 q 790 522 786 464 l 664 533 q 642 455 660 485 q 592 425 624 425 q 518 442 551 425 q 452 481 485 460 q 383 519 419 501 q 299 536 346 536 q 218 523 256 536 q 152 484 181 510 q 106 419 124 458 q 88 328 89 379 l 214 317 "},"f":{"ha":561,"x_min":14,"x_max":582,"o":"m 444 718 q 363 685 392 718 q 321 610 335 651 l 521 610 l 521 718 l 444 718 m 132 610 l 132 0 l 271 0 l 271 767 q 283 849 271 814 q 317 906 296 883 q 367 940 339 929 q 426 951 396 951 q 478 947 450 951 q 549 926 506 942 l 582 1022 q 489 1052 533 1044 q 410 1060 444 1060 q 292 1038 344 1060 q 205 977 240 1017 q 151 881 169 938 q 132 757 132 825 l 132 718 l 14 689 l 14 610 l 132 610 "},"d":{"ha":839,"x_min":63,"x_max":742,"o":"m 63 363 q 83 213 63 282 q 144 94 104 144 q 241 14 183 43 q 372 -15 299 -15 q 467 4 415 -15 q 565 72 519 24 l 581 97 l 583 72 q 605 30 594 46 q 632 0 615 14 l 742 0 q 726 107 731 49 q 721 244 721 165 l 721 1053 l 574 1053 l 574 197 q 397 97 488 97 q 322 117 354 97 q 267 173 289 138 q 233 257 244 208 q 221 363 221 306 q 235 474 221 426 q 274 554 249 522 q 332 601 299 586 q 403 617 365 617 q 476 641 447 617 q 525 704 506 665 q 447 723 482 718 q 381 728 413 728 q 262 701 319 728 q 160 626 204 674 q 89 510 115 578 q 63 363 63 443 "},"@":{"ha":1276,"x_min":114,"x_max":1139,"o":"m 865 207 q 864 242 864 224 q 864 279 864 260 l 864 417 q 806 588 864 528 q 640 647 747 647 q 553 640 596 647 q 457 610 510 632 l 486 532 q 559 553 526 547 q 621 558 592 558 q 723 523 692 558 q 754 424 754 488 l 754 228 q 684 168 722 185 q 610 151 646 151 q 541 172 567 151 q 515 225 515 193 q 538 278 515 256 q 622 310 561 301 q 658 324 643 313 q 681 351 672 336 q 694 380 690 365 q 700 404 699 394 q 473 345 542 388 q 404 219 404 303 q 455 108 404 150 q 593 65 506 65 q 667 77 631 65 q 744 129 704 89 l 758 157 l 761 131 q 776 99 768 113 q 799 78 783 86 q 936 123 874 92 q 1044 201 999 154 q 1114 308 1089 247 q 1139 440 1139 368 q 1101 631 1139 547 q 996 773 1063 715 q 838 860 929 831 q 642 890 747 890 q 441 856 536 890 q 273 753 346 821 q 157 586 200 686 q 114 357 114 486 q 153 117 114 217 q 261 -48 193 17 q 422 -143 329 -112 q 621 -174 514 -174 q 687 -172 656 -174 q 751 -165 718 -169 q 823 -150 785 -160 q 911 -125 861 -140 l 879 -39 q 802 -61 836 -53 q 738 -74 768 -69 q 679 -81 707 -79 q 621 -82 651 -82 q 467 -54 539 -82 q 342 29 396 -26 q 258 167 289 85 q 228 357 228 249 q 259 548 228 465 q 345 686 290 631 q 476 770 400 742 q 640 799 551 799 q 799 774 728 799 q 921 704 871 750 q 999 592 971 658 q 1026 440 1026 525 q 994 304 1026 367 q 883 192 961 242 q 874 183 879 189 q 863 175 868 178 q 864 190 864 182 q 865 207 864 199 "},"k":{"ha":824,"x_min":111,"x_max":793,"o":"m 751 718 l 578 718 l 421 535 q 394 502 407 518 q 368 468 381 486 q 322 361 332 419 q 328 253 313 303 l 431 369 l 463 307 l 626 0 l 793 0 l 521 467 l 751 718 m 258 1053 l 111 1053 l 111 0 l 258 0 l 258 1053 "},"a":{"ha":738,"x_min":61,"x_max":664,"o":"m 642 435 q 567 655 642 578 q 353 732 492 732 q 251 722 307 732 q 129 683 196 713 l 165 588 q 252 613 214 606 q 326 619 290 619 q 455 570 415 619 q 494 442 494 521 l 494 197 q 410 122 456 146 q 319 97 364 97 q 242 127 271 97 q 213 197 213 157 q 240 266 213 235 q 347 311 267 297 q 390 328 372 315 q 419 356 408 340 q 436 390 431 372 q 444 424 442 408 q 264 393 338 413 q 145 344 190 374 q 81 276 100 315 q 61 186 61 236 q 77 108 61 144 q 122 44 93 71 q 194 1 151 17 q 289 -15 236 -15 q 387 1 342 -15 q 488 72 432 18 l 503 96 q 518 41 504 68 q 556 0 532 14 l 664 0 q 647 103 651 46 q 642 238 642 161 l 642 435 "},"t":{"ha":603,"x_min":18,"x_max":539,"o":"m 529 610 l 529 718 l 332 718 q 374 643 346 676 q 454 610 401 610 l 529 610 m 143 268 q 206 58 143 132 q 388 -17 268 -17 q 454 -9 422 -17 q 539 17 486 -1 l 506 115 q 444 99 469 104 q 393 94 418 94 q 313 140 343 94 q 282 257 282 186 l 282 943 l 143 897 l 143 718 l 18 686 l 18 610 l 143 610 l 143 268 "},"v":{"ha":729,"x_min":18,"x_max":714,"o":"m 444 0 l 714 718 l 561 718 l 379 174 l 369 136 l 176 718 l 18 718 l 288 0 l 444 0 "},"y":{"ha":764,"x_min":22,"x_max":729,"o":"m 171 -231 q 86 -218 132 -231 l 49 -319 q 171 -343 111 -340 q 282 -316 238 -343 q 360 -241 326 -289 q 419 -128 393 -193 q 475 15 446 -62 l 729 718 l 576 718 l 364 51 q 324 -62 343 -11 q 285 -151 306 -114 q 237 -210 264 -189 q 171 -231 210 -231 m 179 718 l 22 718 l 281 15 q 307 61 296 33 q 324 122 318 89 q 328 190 329 154 q 319 261 328 226 q 253 489 292 374 q 179 718 215 604 "},"â":{"ha":732,"x_min":56,"x_max":660,"o":"m 638 435 q 561 655 638 578 q 342 732 485 732 q 242 722 294 732 q 122 683 189 713 l 160 588 q 247 613 208 606 q 321 619 285 619 q 449 570 410 619 q 489 442 489 521 l 489 197 q 403 122 449 146 q 314 97 358 97 q 236 127 265 97 q 207 197 207 157 q 234 266 207 235 q 340 311 261 297 q 384 328 367 315 q 413 356 401 340 q 431 390 425 372 q 439 424 436 408 q 258 393 332 413 q 140 344 185 374 q 75 276 94 315 q 56 186 56 236 q 72 108 56 144 q 117 44 88 71 q 188 1 146 17 q 283 -15 231 -15 q 336 -11 310 -15 q 390 5 363 -7 q 443 38 417 17 q 497 93 469 58 q 513 40 500 65 q 550 0 526 14 l 660 0 q 642 103 647 46 q 638 238 638 161 l 638 435 m 321 1032 l 171 832 l 251 817 l 369 929 l 488 818 l 572 832 l 419 1032 l 321 1032 "},"g":{"ha":801,"x_min":69,"x_max":703,"o":"m 69 349 q 92 203 69 271 q 155 88 115 136 q 249 13 194 39 q 365 -10 303 -14 q 435 6 397 -7 q 510 42 474 18 q 397 106 461 110 q 321 119 353 101 q 268 172 289 138 q 237 251 247 206 q 226 349 226 297 q 286 549 226 478 q 447 621 346 621 q 500 617 474 621 q 558 606 526 614 l 558 -15 q 542 -113 558 -72 q 497 -182 525 -154 q 431 -223 468 -210 q 350 -236 393 -236 q 256 -224 306 -236 q 143 -185 206 -212 l 104 -289 q 242 -336 176 -325 q 361 -347 307 -347 q 500 -324 438 -347 q 608 -257 563 -301 q 678 -148 653 -212 q 703 0 703 -83 l 703 689 q 562 724 621 714 q 444 733 503 733 q 291 705 360 733 q 173 625 222 676 q 97 503 124 574 q 69 349 69 433 "},"s":{"ha":586,"x_min":47,"x_max":549,"o":"m 47 44 q 126 13 89 25 q 194 -5 163 1 q 256 -12 226 -11 q 311 -14 285 -14 q 400 2 357 -14 q 476 46 443 18 q 529 110 510 74 q 549 190 549 147 q 524 288 549 249 q 461 353 499 326 q 381 400 424 381 q 300 439 338 419 q 238 482 263 458 q 213 540 213 506 q 242 601 213 581 q 315 621 271 621 q 383 615 347 621 q 465 594 418 610 l 501 694 q 392 723 440 715 q 303 731 344 731 q 199 713 243 731 q 127 668 156 696 q 85 606 99 640 q 71 539 71 572 q 96 444 71 482 q 158 379 121 406 q 239 334 196 353 q 319 296 282 315 q 382 253 357 276 q 407 193 407 229 q 378 126 407 153 q 290 99 350 99 q 194 110 246 99 q 85 147 142 121 l 47 44 "},"z":{"ha":633,"x_min":47,"x_max":593,"o":"m 90 614 l 388 614 l 417 618 l 396 594 l 47 61 l 47 0 l 593 0 l 593 107 l 250 107 l 219 103 l 240 126 q 256 150 249 138 q 272 175 264 163 l 586 657 l 586 718 l 90 718 l 90 614 "},"C":{"ha":885,"x_min":90,"x_max":849,"o":"m 603 -17 q 723 -1 661 -17 q 849 47 785 14 l 808 149 q 702 108 753 121 q 603 96 651 96 q 464 126 528 96 q 353 212 400 157 q 279 342 306 267 q 253 504 253 417 q 279 676 253 600 q 353 805 306 751 q 464 886 400 858 q 603 914 528 914 q 699 906 651 914 q 808 879 747 899 l 849 981 q 603 1028 721 1028 q 397 989 490 1028 q 235 880 303 950 q 128 714 167 810 q 90 504 90 618 q 128 290 90 386 q 233 126 165 194 q 396 21 301 58 q 603 -17 490 -17 "},"G":{"ha":928,"x_min":51,"x_max":872,"o":"m 582 914 q 688 905 631 914 q 822 864 746 896 l 863 967 q 715 1015 788 1001 q 582 1028 642 1028 q 372 989 469 1028 q 204 881 275 950 q 92 715 133 811 q 51 504 51 619 q 92 290 51 386 q 203 125 132 193 q 371 20 274 57 q 581 -17 468 -17 q 719 -2 640 -17 q 872 51 797 13 l 872 468 l 729 468 l 729 117 q 648 99 685 103 q 581 96 611 96 q 439 124 506 96 q 322 203 372 151 q 243 332 272 256 q 214 504 214 408 q 243 678 214 601 q 323 807 272 754 q 440 887 374 860 q 582 914 507 914 "},"H":{"ha":1028,"x_min":121,"x_max":908,"o":"m 121 0 l 272 0 l 272 1010 l 121 1010 l 121 0 m 450 585 q 368 550 397 585 q 325 474 339 515 l 758 474 l 758 0 l 908 0 l 908 1010 l 758 1010 l 758 585 l 450 585 "},"N":{"ha":1051,"x_min":140,"x_max":910,"o":"m 775 0 l 910 0 l 910 1010 l 776 1010 l 776 258 l 779 208 l 761 257 l 711 336 l 290 1010 l 140 1010 l 140 0 l 269 0 l 269 779 l 267 826 l 288 778 q 531 388 410 581 q 775 0 653 196 "},"O":{"ha":1097,"x_min":61,"x_max":1018,"o":"m 224 506 q 247 673 224 597 q 313 803 271 749 q 413 887 356 857 q 540 917 471 917 q 666 888 608 917 q 766 804 724 858 q 832 674 808 750 q 856 506 856 599 q 832 340 856 415 q 767 210 808 265 q 667 124 725 154 q 540 93 608 93 q 411 124 469 93 q 311 211 353 156 q 247 342 269 267 q 224 506 224 418 m 61 506 q 97 289 61 386 q 197 123 133 192 q 348 17 260 54 q 540 -19 436 -19 q 729 19 642 -19 q 881 128 817 58 q 981 294 944 197 q 1018 506 1018 390 q 988 703 1018 608 q 899 872 958 799 q 749 988 839 944 q 540 1031 660 1031 q 361 996 447 1031 q 208 894 275 961 q 101 730 142 828 q 61 506 61 632 "},"Q":{"ha":1092,"x_min":69,"x_max":1025,"o":"m 900 160 q 994 328 963 247 q 1025 506 1025 410 q 990 723 1025 626 q 890 888 954 819 q 739 994 826 957 q 547 1031 651 1031 q 360 993 447 1031 q 208 887 272 956 q 106 721 143 818 q 69 506 69 624 q 105 290 69 388 q 203 124 140 193 q 351 18 265 56 q 540 -19 438 -19 q 649 -1 594 -19 q 758 56 703 17 q 694 95 735 81 q 615 103 654 110 q 578 97 596 99 q 540 94 561 94 q 415 125 472 94 q 317 210 358 156 q 253 340 276 265 q 231 506 231 415 q 254 673 231 597 q 320 803 278 749 q 421 887 363 857 q 547 917 479 917 q 674 887 615 917 q 774 803 732 857 q 839 673 815 749 q 863 506 863 597 q 853 391 863 449 q 815 281 843 333 l 806 246 l 788 274 l 657 408 l 574 326 l 917 -24 l 1000 58 l 900 160 "},"S":{"ha":779,"x_min":79,"x_max":711,"o":"m 393 915 q 484 909 433 915 q 596 885 535 903 l 638 985 q 501 1018 561 1008 q 381 1028 442 1028 q 265 1009 318 1028 q 174 957 213 990 q 113 876 135 924 q 92 772 92 829 q 126 642 92 694 q 213 551 161 589 q 326 483 265 513 q 438 422 386 453 q 525 351 490 390 q 560 256 560 313 q 546 193 560 222 q 507 142 532 164 q 446 108 482 121 q 364 96 410 96 q 250 108 314 96 q 119 151 186 121 l 79 50 q 236 -2 157 13 q 375 -17 315 -17 q 517 5 454 -17 q 622 63 579 26 q 688 148 665 99 q 711 254 711 197 q 676 388 711 333 q 589 484 642 443 q 475 556 536 525 q 361 619 414 588 q 274 688 308 651 q 239 778 239 725 q 279 875 239 835 q 393 915 319 915 "},"U":{"ha":978,"x_min":110,"x_max":875,"o":"m 493 -19 q 649 9 579 -19 q 769 90 719 38 q 847 215 819 142 q 875 376 875 288 l 875 1010 l 726 1010 l 726 354 q 710 246 726 294 q 662 163 693 197 q 588 111 631 129 q 493 93 544 93 q 398 111 440 93 q 324 163 356 129 q 276 246 293 197 q 260 354 260 294 l 260 1010 l 110 1010 l 110 376 q 136 212 110 285 q 212 88 163 139 q 332 8 261 36 q 493 -19 403 -19 "},"X":{"ha":883,"x_min":46,"x_max":836,"o":"m 356 265 q 371 317 369 290 q 365 369 372 343 q 347 417 358 394 q 322 457 335 440 l 46 0 l 208 0 l 356 265 m 667 0 l 836 0 l 522 519 l 818 1010 l 650 1010 l 454 653 l 443 615 l 431 653 l 236 1010 l 63 1010 l 667 0 "},"Y":{"ha":932,"x_min":38,"x_max":868,"o":"m 540 719 q 524 664 525 692 q 528 610 522 636 q 547 562 535 585 q 571 522 558 539 l 868 1010 l 703 1010 l 540 719 m 207 1010 l 38 1010 l 385 435 l 385 0 l 532 0 l 532 469 l 207 1010 "},"Z":{"ha":836,"x_min":103,"x_max":839,"o":"m 158 899 l 615 899 l 649 903 l 626 879 l 103 61 l 103 0 l 839 0 l 839 113 l 310 113 l 279 108 l 300 129 l 825 949 l 825 1010 l 158 1010 l 158 899 "},"c":{"ha":594,"x_min":53,"x_max":586,"o":"m 399 -15 q 481 -5 432 -15 q 586 33 529 6 l 547 136 q 464 106 500 115 q 399 97 428 97 q 324 114 358 97 q 265 163 290 131 q 224 245 239 196 q 210 360 210 294 q 224 474 210 425 q 265 555 239 522 q 325 604 290 588 q 399 621 360 621 q 460 617 426 621 q 531 601 493 613 l 567 704 q 481 726 525 719 q 399 733 436 733 q 267 709 329 733 q 157 638 204 685 q 81 521 110 590 q 53 360 53 451 q 81 197 53 267 q 155 79 108 126 q 265 8 201 32 q 399 -15 328 -15 "},"á":{"ha":732,"x_min":54,"x_max":658,"o":"m 636 435 q 560 655 636 578 q 340 732 483 732 q 241 722 293 732 q 122 683 189 713 l 158 588 q 246 613 208 606 q 319 619 283 619 q 449 570 408 619 q 489 442 489 521 l 489 197 q 403 122 449 146 q 313 97 357 97 q 235 127 264 97 q 207 197 207 157 q 213 233 207 215 q 233 266 218 251 q 274 292 249 281 q 340 311 300 304 q 384 328 367 315 q 413 356 401 340 q 431 390 425 372 q 439 424 436 408 q 257 393 331 413 q 138 344 183 374 q 74 276 93 315 q 54 186 54 236 q 70 108 54 144 q 116 44 86 71 q 188 1 146 17 q 283 -15 231 -15 q 336 -11 310 -15 q 389 5 363 -7 q 442 38 415 17 q 496 93 469 58 q 512 40 499 65 q 549 0 525 14 l 658 0 q 641 103 646 46 q 636 238 636 161 l 636 435 m 569 1028 l 418 1028 l 296 836 q 375 835 331 826 q 451 882 419 843 l 569 1028 "},"à":{"ha":732,"x_min":56,"x_max":658,"o":"m 636 435 q 560 655 636 578 q 342 732 485 732 q 242 722 294 732 q 122 683 189 713 l 160 588 q 247 613 208 606 q 321 619 285 619 q 449 570 410 619 q 489 442 489 521 l 489 197 q 403 122 449 146 q 314 97 358 97 q 236 127 265 97 q 207 197 207 157 q 234 266 207 235 q 340 311 261 297 q 384 328 367 315 q 413 356 401 340 q 431 390 425 372 q 439 424 436 408 q 258 393 332 413 q 140 344 185 374 q 75 276 94 315 q 56 186 56 236 q 72 108 56 144 q 117 44 88 71 q 188 1 146 17 q 283 -15 231 -15 q 336 -11 310 -15 q 390 5 363 -7 q 443 38 417 17 q 497 93 469 58 q 513 40 500 65 q 550 0 526 14 l 658 0 q 641 103 646 46 q 636 238 636 161 l 636 435 m 264 883 q 338 837 296 846 q 417 836 381 828 l 315 1028 l 167 1028 l 264 883 "},"ä":{"ha":732,"x_min":56,"x_max":660,"o":"m 638 435 q 561 655 638 578 q 342 732 485 732 q 242 722 294 732 q 124 683 190 713 l 160 588 q 247 613 210 606 q 321 619 285 619 q 450 570 410 619 q 490 442 490 521 l 490 197 q 404 122 450 146 q 314 97 358 97 q 237 127 265 97 q 208 197 208 157 q 214 233 208 215 q 235 266 219 251 q 276 292 250 281 q 342 311 301 304 q 385 328 368 315 q 415 356 403 340 q 432 390 426 372 q 440 424 438 408 q 258 393 332 413 q 140 344 185 374 q 75 276 94 315 q 56 186 56 236 q 72 108 56 144 q 117 44 88 71 q 190 1 147 17 q 285 -15 232 -15 q 338 -11 311 -15 q 390 5 364 -7 q 444 38 417 17 q 497 93 471 58 q 513 40 500 65 q 550 0 526 14 l 660 0 q 642 103 647 46 q 638 238 638 161 l 638 435 m 429 931 q 452 876 429 899 q 507 854 475 854 q 561 876 539 854 q 583 931 583 899 q 561 985 583 963 q 507 1007 539 1007 q 452 985 475 1007 q 429 931 429 963 m 160 931 q 182 876 160 899 q 236 854 204 854 q 291 876 268 854 q 314 931 314 899 q 291 985 314 963 q 236 1007 268 1007 q 182 985 204 1007 q 160 931 160 963 "},"ã":{"ha":732,"x_min":56,"x_max":660,"o":"m 244 858 q 262 917 247 900 q 293 933 276 933 q 326 922 311 933 q 360 895 342 910 q 400 869 378 881 q 456 857 422 857 q 497 865 476 857 q 535 890 518 872 q 563 938 551 908 q 576 1011 575 967 l 496 1019 q 482 964 493 983 q 453 944 471 944 q 415 956 432 944 q 381 983 399 968 q 341 1009 363 997 q 289 1021 319 1021 q 201 983 238 1021 q 161 867 164 944 l 244 858 m 638 435 q 561 655 638 578 q 342 732 485 732 q 242 722 294 732 q 124 683 190 713 l 160 588 q 247 613 210 606 q 321 619 285 619 q 450 570 410 619 q 490 442 490 521 l 490 197 q 404 122 450 146 q 314 97 358 97 q 237 127 265 97 q 208 197 208 157 q 214 233 208 215 q 235 266 219 251 q 276 292 250 281 q 342 311 301 304 q 385 328 368 315 q 415 356 403 340 q 432 390 426 372 q 440 424 438 408 q 258 393 332 413 q 140 344 185 374 q 75 276 94 315 q 56 186 56 236 q 72 108 56 144 q 117 44 88 71 q 190 1 147 17 q 285 -15 232 -15 q 338 -11 311 -15 q 390 5 364 -7 q 444 38 417 17 q 497 93 471 58 q 513 40 500 65 q 550 0 526 14 l 660 0 q 642 103 647 46 q 638 238 638 161 l 638 435 "},"å":{"ha":732,"x_min":56,"x_max":660,"o":"m 371 847 q 326 867 343 847 q 310 911 310 888 q 326 961 310 942 q 371 981 343 981 q 418 961 401 981 q 435 914 435 942 q 418 867 435 886 q 371 847 401 847 m 371 789 q 471 824 431 789 q 511 913 511 858 q 473 1004 511 969 q 372 1039 435 1039 q 270 1003 310 1039 q 231 911 231 967 q 269 824 231 858 q 371 789 308 789 m 638 435 q 563 655 638 578 q 349 732 488 732 q 246 722 301 732 q 124 683 190 713 l 160 588 q 247 613 210 606 q 321 619 285 619 q 450 570 410 619 q 490 442 490 521 l 490 197 q 404 122 450 146 q 314 97 358 97 q 237 127 265 97 q 208 197 208 157 q 214 233 208 215 q 235 266 219 251 q 276 292 250 281 q 342 311 301 304 q 385 328 368 315 q 415 356 403 340 q 432 390 426 372 q 440 424 438 408 q 258 393 332 413 q 140 344 185 374 q 75 276 94 315 q 56 186 56 236 q 72 108 56 144 q 117 44 88 71 q 190 1 147 17 q 285 -15 232 -15 q 338 -11 311 -15 q 390 5 364 -7 q 444 38 417 17 q 497 93 471 58 q 513 40 500 65 q 550 0 526 14 l 660 0 q 642 103 647 46 q 638 238 638 161 l 638 435 "},"ç":{"ha":593,"x_min":49,"x_max":582,"o":"m 394 -15 q 477 -5 429 -15 q 582 33 525 6 l 543 136 q 460 106 496 115 q 394 97 424 97 q 320 114 354 97 q 260 163 286 131 q 220 245 235 196 q 206 360 206 294 q 220 474 206 425 q 260 555 235 522 q 321 604 286 588 q 394 621 356 621 q 456 617 422 621 q 525 601 489 613 l 563 704 q 476 726 521 719 q 394 733 432 733 q 263 709 325 733 q 153 638 200 685 q 77 521 106 590 q 49 360 49 451 q 69 215 49 279 q 126 106 90 151 q 212 31 163 60 q 319 -8 261 3 l 290 -119 q 366 -137 339 -125 q 393 -175 393 -150 q 371 -206 393 -197 q 325 -215 349 -215 q 283 -212 304 -215 q 236 -197 263 -208 l 214 -262 q 274 -283 247 -278 q 325 -289 301 -289 q 383 -282 354 -289 q 436 -261 413 -275 q 474 -225 460 -247 q 489 -171 489 -203 q 479 -131 489 -149 q 453 -99 469 -112 q 417 -78 438 -86 q 376 -67 397 -69 l 390 -15 l 394 -15 "},"é":{"ha":756,"x_min":68,"x_max":690,"o":"m 606 1028 l 454 1028 l 332 836 q 411 835 367 826 q 488 882 456 843 l 606 1028 m 382 440 q 309 412 336 440 q 267 342 282 383 l 665 342 q 682 492 690 421 q 638 616 674 563 q 545 701 603 669 q 415 733 488 733 q 274 708 338 733 q 164 635 210 682 q 93 519 118 588 q 68 367 68 451 q 91 219 68 289 q 158 98 114 150 q 267 15 203 46 q 414 -15 332 -15 q 531 -3 468 -15 q 664 46 594 10 l 625 147 q 522 108 565 118 q 429 97 478 97 q 344 117 383 97 q 276 172 304 136 q 231 257 247 207 q 215 368 215 307 q 230 478 215 431 q 270 558 244 526 q 330 607 296 590 q 403 624 364 624 q 464 609 436 624 q 511 569 492 594 q 539 511 531 544 q 543 440 547 478 l 382 440 "},"è":{"ha":756,"x_min":69,"x_max":690,"o":"m 304 883 q 378 837 335 846 q 457 836 421 828 l 356 1028 l 207 1028 l 304 883 m 382 440 q 309 412 336 440 q 267 342 282 383 l 665 342 q 682 492 690 421 q 639 616 674 563 q 547 701 604 669 q 417 733 489 733 q 275 708 339 733 q 165 635 211 682 q 94 519 119 588 q 69 367 69 451 q 92 219 69 289 q 160 98 115 150 q 268 15 204 46 q 414 -15 332 -15 q 531 -3 468 -15 q 664 46 594 10 l 625 147 q 522 108 565 118 q 429 97 478 97 q 344 117 383 97 q 276 172 304 136 q 233 257 249 207 q 217 368 217 307 q 231 478 217 431 q 271 558 246 526 q 330 607 296 590 q 403 624 364 624 q 464 609 436 624 q 511 569 492 594 q 539 511 531 544 q 543 440 547 478 l 382 440 "},"ê":{"ha":756,"x_min":68,"x_max":690,"o":"m 356 1032 l 206 832 l 286 817 l 404 929 l 522 818 l 607 832 l 454 1032 l 356 1032 m 382 440 q 309 412 336 440 q 267 342 282 383 l 665 342 q 682 492 690 421 q 638 616 674 563 q 545 701 603 669 q 415 733 488 733 q 274 708 338 733 q 164 635 210 682 q 93 519 118 588 q 68 367 68 451 q 91 219 68 289 q 158 98 114 150 q 267 15 203 46 q 413 -15 331 -15 q 530 -3 467 -15 q 664 46 593 10 l 625 147 q 522 108 565 118 q 429 97 478 97 q 344 117 383 97 q 276 172 304 136 q 231 257 247 207 q 215 368 215 307 q 269 559 215 494 q 403 624 324 624 q 464 609 436 624 q 510 569 492 594 q 538 511 529 544 q 543 440 547 478 l 382 440 "},"ë":{"ha":756,"x_min":69,"x_max":690,"o":"m 454 931 q 477 876 454 899 q 532 854 500 854 q 586 876 564 854 q 608 931 608 899 q 586 985 608 963 q 532 1007 564 1007 q 477 985 500 1007 q 454 931 454 963 m 185 931 q 207 876 185 899 q 261 854 229 854 q 316 876 293 854 q 339 931 339 899 q 316 985 339 963 q 261 1007 293 1007 q 207 985 229 1007 q 185 931 185 963 m 382 440 q 309 412 336 440 q 267 342 282 383 l 665 342 q 682 492 690 421 q 639 616 674 563 q 547 701 604 669 q 417 733 489 733 q 275 708 339 733 q 165 635 211 682 q 94 519 119 588 q 69 367 69 451 q 92 219 69 289 q 160 98 115 150 q 268 15 204 46 q 414 -15 332 -15 q 531 -3 468 -15 q 664 46 594 10 l 625 147 q 522 108 565 118 q 429 97 478 97 q 344 117 383 97 q 276 172 304 136 q 233 257 249 207 q 217 368 217 307 q 231 478 217 431 q 271 558 246 526 q 330 607 296 590 q 403 624 364 624 q 464 609 436 624 q 511 569 492 594 q 539 511 531 544 q 543 440 547 478 l 382 440 "},"í":{"ha":379,"x_min":89,"x_max":367,"o":"m 367 1028 l 215 1028 l 93 836 q 172 835 128 826 q 249 882 217 843 l 367 1028 m 239 0 l 239 718 l 89 718 l 89 0 l 239 0 "},"ì":{"ha":383,"x_min":18,"x_max":296,"o":"m 115 883 q 189 837 146 846 q 268 836 232 828 l 167 1028 l 18 1028 l 115 883 m 296 0 l 296 718 l 144 718 l 144 0 l 296 0 "},"î":{"ha":468,"x_min":33,"x_max":435,"o":"m 183 1032 l 33 832 l 114 817 l 232 929 l 350 818 l 435 832 l 282 1032 l 183 1032 m 307 0 l 307 718 l 157 718 l 157 0 l 307 0 "},"ï":{"ha":489,"x_min":32,"x_max":456,"o":"m 301 931 q 324 876 301 899 q 378 854 346 854 q 433 876 410 854 q 456 931 456 899 q 433 985 456 963 q 378 1007 410 1007 q 324 985 346 1007 q 301 931 301 963 m 32 931 q 55 876 32 899 q 108 854 78 854 q 164 876 140 854 q 188 931 188 899 q 164 985 188 963 q 108 1007 140 1007 q 55 985 78 1007 q 32 931 32 963 m 321 0 l 321 718 l 169 718 l 169 0 l 321 0 "},"ñ":{"ha":828,"x_min":88,"x_max":714,"o":"m 288 858 q 305 917 290 900 q 336 933 319 933 q 369 922 354 933 q 402 895 385 910 q 442 869 419 881 q 499 857 465 857 q 539 865 518 857 q 577 890 560 872 q 606 938 594 908 q 619 1011 617 967 l 538 1019 q 524 964 535 983 q 494 944 514 944 q 457 956 474 944 q 422 983 440 968 q 383 1009 404 997 q 331 1021 361 1021 q 243 983 281 1021 q 203 867 206 944 l 288 858 m 563 0 l 714 0 l 714 510 q 697 615 714 572 q 652 684 681 658 q 587 722 624 710 q 511 733 550 733 q 420 719 471 733 q 297 663 369 704 q 330 626 313 642 q 371 608 347 611 q 399 607 385 606 q 428 611 414 608 q 456 617 442 614 q 483 619 469 619 q 543 591 524 619 q 563 518 563 563 l 563 0 m 88 718 q 110 543 110 624 l 110 0 l 260 0 l 260 565 q 249 644 260 607 q 206 718 239 681 l 88 718 "},"ó":{"ha":786,"x_min":44,"x_max":736,"o":"m 593 1028 l 442 1028 l 319 836 q 399 835 354 826 q 475 882 443 843 l 593 1028 m 578 360 q 524 164 578 231 q 390 97 471 97 q 256 164 310 97 q 201 360 201 231 q 256 554 201 488 q 390 621 310 621 q 524 554 471 621 q 578 360 578 488 m 736 360 q 709 518 736 449 q 635 635 682 588 q 525 708 588 683 q 390 733 463 733 q 257 708 319 733 q 147 633 194 682 q 72 516 100 585 q 44 360 44 447 q 72 200 44 269 q 145 83 99 131 q 255 10 192 35 q 390 -15 318 -15 q 524 10 461 -15 q 633 85 586 36 q 708 203 681 133 q 736 360 736 272 "},"ò":{"ha":786,"x_min":44,"x_max":736,"o":"m 304 883 q 378 837 336 846 q 457 836 421 828 l 356 1028 l 208 1028 l 304 883 m 578 360 q 524 164 578 231 q 390 97 471 97 q 256 164 310 97 q 201 360 201 231 q 256 554 201 488 q 390 621 310 621 q 524 554 471 621 q 578 360 578 488 m 736 360 q 709 518 736 449 q 635 635 682 588 q 525 708 588 683 q 390 733 463 733 q 257 708 319 733 q 147 633 194 682 q 72 516 100 585 q 44 360 44 447 q 72 200 44 269 q 145 83 99 131 q 255 10 192 35 q 390 -15 318 -15 q 524 10 461 -15 q 633 85 586 36 q 708 203 681 133 q 736 360 736 272 "},"ô":{"ha":786,"x_min":44,"x_max":736,"o":"m 342 1032 l 192 832 l 272 817 l 390 929 l 508 818 l 592 832 l 439 1032 l 342 1032 m 578 360 q 524 164 578 231 q 390 97 471 97 q 256 164 310 97 q 201 360 201 231 q 256 554 201 488 q 390 621 310 621 q 524 554 471 621 q 578 360 578 488 m 736 360 q 709 518 736 449 q 635 635 682 588 q 525 708 588 683 q 390 733 463 733 q 257 708 319 733 q 147 633 194 682 q 72 516 100 585 q 44 360 44 447 q 72 200 44 269 q 145 83 99 131 q 255 10 192 35 q 390 -15 318 -15 q 524 10 461 -15 q 633 85 586 36 q 708 203 681 133 q 736 360 736 272 "},"ö":{"ha":786,"x_min":44,"x_max":736,"o":"m 447 931 q 470 876 447 899 q 525 854 493 854 q 579 876 557 854 q 601 931 601 899 q 579 985 601 963 q 525 1007 557 1007 q 470 985 493 1007 q 447 931 447 963 m 178 931 q 200 876 178 899 q 254 854 222 854 q 309 876 286 854 q 332 931 332 899 q 309 985 332 963 q 254 1007 286 1007 q 200 985 222 1007 q 178 931 178 963 m 578 360 q 524 164 578 231 q 390 97 469 97 q 255 164 308 97 q 201 360 201 231 q 256 554 201 488 q 390 621 310 621 q 524 554 469 621 q 578 360 578 488 m 736 360 q 709 518 736 449 q 635 635 682 588 q 525 708 588 683 q 390 733 463 733 q 257 708 319 733 q 147 633 194 682 q 72 516 100 585 q 44 360 44 447 q 72 200 44 269 q 145 83 99 131 q 255 10 192 35 q 390 -15 318 -15 q 524 10 461 -15 q 633 85 586 36 q 708 203 681 133 q 736 360 736 272 "},"õ":{"ha":786,"x_min":44,"x_max":736,"o":"m 268 858 q 285 917 271 900 q 317 933 300 933 q 350 922 335 933 q 383 895 365 910 q 423 869 400 881 q 479 857 446 857 q 519 865 499 857 q 558 890 540 872 q 586 938 575 908 q 600 1011 597 967 l 518 1019 q 505 964 515 983 q 475 944 494 944 q 438 956 454 944 q 403 983 421 968 q 363 1009 385 997 q 311 1021 342 1021 q 224 983 261 1021 q 183 867 186 944 l 268 858 m 578 360 q 524 164 578 231 q 390 97 471 97 q 256 164 310 97 q 201 360 201 231 q 256 554 201 488 q 390 621 310 621 q 524 554 471 621 q 578 360 578 488 m 736 360 q 709 518 736 449 q 635 635 682 588 q 525 708 588 683 q 390 733 463 733 q 257 708 319 733 q 147 633 194 682 q 72 516 100 585 q 44 360 44 447 q 72 200 44 269 q 145 83 99 131 q 255 10 192 35 q 390 -15 318 -15 q 524 10 461 -15 q 633 85 586 36 q 708 203 681 133 q 736 360 736 272 "},"ú":{"ha":815,"x_min":90,"x_max":711,"o":"m 611 1028 l 460 1028 l 338 836 q 417 835 372 826 q 493 882 461 843 l 611 1028 m 239 718 l 90 718 l 90 208 q 106 103 90 146 q 150 34 122 60 q 213 -3 178 8 q 289 -15 249 -15 q 380 -1 329 -15 q 504 56 431 14 q 463 95 485 79 q 414 113 440 111 q 362 106 386 113 q 318 99 338 99 q 258 127 276 99 q 239 200 239 156 l 239 718 m 711 0 q 694 92 699 49 q 689 175 689 136 l 689 718 l 540 718 l 540 153 q 551 74 540 111 q 594 0 561 38 l 711 0 "},"ù":{"ha":815,"x_min":89,"x_max":710,"o":"m 296 883 q 370 837 328 846 q 449 836 413 828 l 347 1028 l 200 1028 l 296 883 m 238 718 l 89 718 l 89 208 q 105 103 89 146 q 149 34 121 60 q 213 -3 176 8 q 289 -15 249 -15 q 380 -1 329 -15 q 503 56 431 14 q 461 95 483 79 q 413 113 439 111 q 361 106 385 113 q 317 99 338 99 q 256 127 275 99 q 238 200 238 156 l 238 718 m 710 0 q 692 92 697 49 q 688 175 688 136 l 688 718 l 539 718 l 539 153 q 550 74 539 111 q 593 0 561 38 l 710 0 "},"û":{"ha":815,"x_min":90,"x_max":711,"o":"m 342 1032 l 192 832 l 272 817 l 390 929 l 508 818 l 592 832 l 439 1032 l 342 1032 m 239 718 l 90 718 l 90 208 q 106 103 90 146 q 150 34 122 60 q 213 -3 178 8 q 289 -15 249 -15 q 380 -1 329 -15 q 504 56 431 14 q 463 95 485 79 q 414 113 440 111 q 362 106 386 113 q 318 99 338 99 q 258 127 276 99 q 239 200 239 156 l 239 718 m 711 0 q 694 92 699 49 q 689 175 689 136 l 689 718 l 540 718 l 540 153 q 551 74 540 111 q 594 0 561 38 l 711 0 "},"ü":{"ha":815,"x_min":90,"x_max":710,"o":"m 453 931 q 476 876 453 899 q 531 854 499 854 q 585 876 563 854 q 607 931 607 899 q 585 985 607 963 q 531 1007 563 1007 q 476 985 499 1007 q 453 931 453 963 m 183 931 q 206 876 183 899 q 260 854 228 854 q 315 876 292 854 q 338 931 338 899 q 315 985 338 963 q 260 1007 292 1007 q 206 985 228 1007 q 183 931 183 963 m 239 718 l 90 718 l 90 208 q 106 103 90 146 q 150 34 122 60 q 213 -3 178 8 q 289 -15 249 -15 q 380 -1 329 -15 q 504 56 431 14 q 463 95 485 79 q 413 113 440 111 q 362 106 386 113 q 317 99 338 99 q 258 127 276 99 q 239 200 239 156 l 239 718 m 710 0 q 688 175 688 94 l 688 718 l 540 718 l 540 153 q 551 74 540 111 q 594 0 561 38 l 710 0 "},"É":{"ha":801,"x_min":115,"x_max":719,"o":"m 611 1236 l 463 1236 l 340 1064 q 419 1063 375 1054 q 496 1107 464 1071 l 611 1236 m 444 585 q 398 575 418 585 q 363 550 378 565 q 337 515 347 535 q 319 475 326 496 l 651 475 l 651 585 l 444 585 m 115 0 l 719 0 l 719 113 l 267 113 l 267 897 l 699 897 l 699 1010 l 115 1010 l 115 0 "},"Ñ":{"ha":1040,"x_min":136,"x_max":906,"o":"m 401 1079 q 419 1138 404 1121 q 450 1154 433 1154 q 483 1142 468 1154 q 516 1116 499 1131 q 556 1090 533 1101 q 613 1078 579 1078 q 653 1085 632 1078 q 691 1111 674 1093 q 719 1158 708 1129 q 733 1232 731 1188 l 651 1240 q 638 1185 649 1204 q 608 1165 628 1165 q 571 1177 588 1165 q 536 1203 554 1189 q 497 1230 518 1218 q 444 1242 475 1242 q 357 1203 394 1242 q 317 1088 319 1165 l 401 1079 m 771 0 l 906 0 l 906 1010 l 772 1010 l 772 258 l 775 210 l 758 256 q 733 296 746 275 q 708 336 721 317 l 286 1010 l 136 1010 l 136 0 l 265 0 l 265 779 l 263 826 l 282 779 q 526 389 404 582 q 771 0 649 196 "},"Ö":{"ha":1099,"x_min":53,"x_max":1008,"o":"m 590 1167 q 613 1113 590 1135 q 668 1090 636 1090 q 722 1113 700 1090 q 744 1167 744 1135 q 722 1221 744 1199 q 668 1243 700 1243 q 613 1221 636 1243 q 590 1167 590 1199 m 321 1167 q 343 1113 321 1135 q 397 1090 365 1090 q 452 1113 429 1090 q 475 1167 475 1135 q 452 1221 475 1199 q 397 1243 429 1243 q 343 1221 365 1243 q 321 1167 321 1199 m 847 506 q 824 338 847 414 q 758 208 800 263 q 657 124 715 154 q 531 93 599 93 q 404 124 463 93 q 303 208 346 154 q 238 338 261 263 q 214 506 214 414 q 238 673 214 597 q 303 803 261 749 q 403 887 346 857 q 531 917 461 917 q 657 887 599 917 q 758 803 715 857 q 824 673 800 749 q 847 506 847 597 m 1008 506 q 972 723 1008 626 q 873 888 936 819 q 722 994 810 957 q 531 1031 635 1031 q 343 993 431 1031 q 191 887 256 956 q 90 721 126 818 q 53 506 53 624 q 89 288 53 385 q 189 122 125 190 q 340 17 253 54 q 531 -19 428 -19 q 716 18 629 -19 q 868 124 803 56 q 971 290 933 193 q 1008 506 1008 386 "},"Ü":{"ha":964,"x_min":99,"x_max":864,"o":"m 540 1167 q 563 1113 540 1135 q 618 1090 586 1090 q 672 1113 650 1090 q 694 1167 694 1135 q 672 1221 694 1199 q 618 1243 650 1243 q 563 1221 586 1243 q 540 1167 540 1199 m 271 1167 q 293 1113 271 1135 q 347 1090 315 1090 q 402 1113 379 1090 q 425 1167 425 1135 q 402 1221 425 1199 q 347 1243 379 1243 q 293 1221 315 1243 q 271 1167 271 1199 m 482 -19 q 638 9 568 -19 q 758 90 708 38 q 836 215 808 142 q 864 376 864 288 l 864 1010 l 714 1010 l 714 354 q 697 246 714 294 q 650 163 681 197 q 576 111 619 129 q 482 93 533 93 q 387 111 429 93 q 313 163 344 129 q 265 246 282 197 q 249 354 249 294 l 249 1010 l 99 1010 l 99 376 q 125 212 99 285 q 201 88 151 139 q 321 8 250 36 q 482 -19 392 -19 "},"Ç":{"ha":906,"x_min":90,"x_max":849,"o":"m 603 -17 q 723 -1 661 -17 q 849 47 785 14 l 808 149 q 702 108 753 121 q 603 96 651 96 q 464 124 528 96 q 353 206 400 153 q 279 335 306 260 q 253 504 253 410 q 279 676 253 600 q 353 805 306 751 q 464 886 400 858 q 603 914 528 914 q 699 906 651 914 q 808 879 747 899 l 849 981 q 603 1028 721 1028 q 397 989 490 1028 q 235 880 303 950 q 128 714 167 810 q 90 504 90 618 q 119 318 90 404 q 199 166 147 232 q 322 56 250 100 q 483 -6 394 13 l 454 -119 q 530 -137 503 -125 q 557 -175 557 -150 q 535 -206 557 -197 q 489 -215 513 -215 q 447 -212 468 -215 q 400 -197 426 -208 l 378 -262 q 438 -283 411 -278 q 489 -289 465 -289 q 547 -282 518 -289 q 600 -261 576 -275 q 638 -225 624 -247 q 653 -171 653 -203 q 643 -131 653 -149 q 617 -99 633 -112 q 581 -78 601 -86 q 540 -67 561 -69 l 554 -14 q 578 -16 565 -15 q 603 -17 590 -17 "},"Å":{"ha":954,"x_min":40,"x_max":915,"o":"m 475 1047 q 431 1067 447 1047 q 414 1111 414 1088 q 431 1161 414 1142 q 475 1181 447 1181 q 522 1161 506 1181 q 539 1114 539 1142 q 522 1067 539 1086 q 475 1047 506 1047 m 192 0 l 272 236 l 607 236 q 590 277 600 257 q 565 313 579 297 q 530 339 550 329 q 483 349 510 349 l 319 349 l 301 346 l 318 374 q 382 561 350 468 q 446 749 414 654 l 472 828 l 499 750 q 626 376 563 561 q 756 0 690 190 l 915 0 l 553 1007 q 598 1050 581 1022 q 615 1113 615 1078 q 577 1204 615 1169 q 476 1239 539 1239 q 374 1203 414 1239 q 335 1111 335 1167 q 352 1048 335 1075 q 401 1006 369 1021 l 40 0 l 192 0 "},"Ä":{"ha":954,"x_min":40,"x_max":915,"o":"m 535 1167 q 558 1113 535 1135 q 613 1090 581 1090 q 667 1113 644 1090 q 689 1167 689 1135 q 667 1221 689 1199 q 613 1243 644 1243 q 558 1221 581 1243 q 535 1167 535 1199 m 265 1167 q 288 1113 265 1135 q 342 1090 310 1090 q 397 1113 374 1090 q 419 1167 419 1135 q 397 1221 419 1199 q 342 1243 374 1243 q 288 1221 310 1243 q 265 1167 265 1199 m 404 1010 l 40 0 l 190 0 l 271 236 l 607 236 q 590 277 600 257 q 565 313 579 297 q 530 339 550 329 q 483 349 510 349 l 319 349 l 301 346 l 317 374 l 472 829 l 756 0 l 915 0 l 551 1010 l 404 1010 "},"À":{"ha":954,"x_min":40,"x_max":915,"o":"m 407 1107 q 439 1078 419 1089 q 479 1063 458 1068 q 521 1059 500 1058 q 560 1064 542 1060 l 457 1236 l 310 1236 l 407 1107 m 404 1010 l 40 0 l 190 0 l 271 236 l 607 236 q 590 277 600 257 q 565 313 579 297 q 530 339 550 329 q 483 349 510 349 l 319 349 l 301 346 l 317 374 l 472 829 l 756 0 l 915 0 l 551 1010 l 404 1010 "},"Ã":{"ha":954,"x_min":40,"x_max":915,"o":"m 360 1079 q 377 1138 363 1121 q 408 1154 392 1154 q 442 1142 426 1154 q 474 1116 457 1131 q 515 1090 492 1101 q 571 1078 538 1078 q 611 1085 590 1078 q 649 1111 632 1093 q 678 1158 667 1129 q 692 1232 689 1188 l 610 1240 q 597 1185 607 1204 q 567 1165 586 1165 q 529 1177 546 1165 q 494 1203 513 1189 q 455 1230 476 1218 q 403 1242 433 1242 q 315 1203 353 1242 q 275 1088 278 1165 l 360 1079 m 404 1010 l 40 0 l 190 0 l 271 236 l 607 236 q 590 277 600 257 q 565 313 579 297 q 530 339 550 329 q 483 349 510 349 l 319 349 l 301 346 l 317 374 l 472 829 l 756 0 l 915 0 l 551 1010 l 404 1010 "},"Õ":{"ha":1099,"x_min":53,"x_max":1008,"o":"m 414 1079 q 431 1138 417 1121 q 463 1154 446 1154 q 496 1142 481 1154 q 528 1116 511 1131 q 569 1090 546 1101 q 625 1078 592 1078 q 665 1085 644 1078 q 703 1111 686 1093 q 732 1158 721 1129 q 746 1232 743 1188 l 664 1240 q 651 1185 661 1204 q 621 1165 640 1165 q 583 1177 600 1165 q 549 1203 567 1189 q 509 1230 531 1218 q 457 1242 488 1242 q 369 1203 407 1242 q 329 1088 332 1165 l 414 1079 m 847 506 q 824 338 847 414 q 758 208 800 263 q 657 124 715 154 q 531 93 599 93 q 404 124 463 93 q 303 208 346 154 q 238 338 261 263 q 214 506 214 414 q 238 673 214 597 q 303 803 261 749 q 403 887 346 857 q 531 917 461 917 q 657 887 599 917 q 758 803 715 857 q 824 673 800 749 q 847 506 847 597 m 1008 506 q 972 723 1008 626 q 873 888 936 819 q 722 994 810 957 q 531 1031 635 1031 q 343 993 431 1031 q 191 887 256 956 q 90 721 126 818 q 53 506 53 624 q 89 288 53 385 q 189 122 125 190 q 340 17 253 54 q 531 -19 428 -19 q 716 18 629 -19 q 868 124 803 56 q 971 290 933 193 q 1008 506 1008 386 "},"Œ":{"ha":1332,"x_min":53,"x_max":1290,"o":"m 1015 585 q 969 575 989 585 q 933 550 949 565 q 908 515 918 535 q 890 475 897 496 l 1222 475 l 1222 585 l 1015 585 m 531 917 q 608 910 567 917 q 686 892 650 904 l 686 118 q 606 99 646 104 q 531 93 567 93 q 404 124 463 93 q 303 208 346 154 q 238 338 261 263 q 214 506 214 414 q 238 673 214 597 q 303 803 261 749 q 403 887 346 857 q 531 917 461 917 m 531 -19 q 625 -10 569 -19 q 740 0 681 0 l 1290 0 l 1290 113 l 838 113 l 838 897 l 1269 897 l 1269 1010 l 740 1010 q 630 1020 685 1010 q 531 1031 575 1031 q 343 993 431 1031 q 191 887 256 956 q 90 721 126 818 q 53 506 53 624 q 89 288 53 385 q 189 122 125 190 q 340 17 253 54 q 531 -19 428 -19 "},"œ":{"ha":1267,"x_min":46,"x_max":1203,"o":"m 579 360 q 524 163 576 229 q 392 97 471 97 q 256 164 310 97 q 203 360 203 231 q 257 554 203 488 q 392 621 311 621 q 524 556 471 621 q 579 360 576 490 m 729 365 q 785 560 732 496 q 915 624 838 624 q 976 609 949 624 q 1024 569 1004 594 q 1051 511 1043 544 q 1056 440 1060 478 l 894 440 q 822 412 849 440 q 779 342 794 383 l 1178 342 q 1194 492 1203 421 q 1151 616 1186 563 q 1059 701 1117 669 q 929 733 1001 733 q 763 689 838 733 q 653 563 689 644 q 541 694 610 654 q 392 733 472 733 q 258 708 321 733 q 148 633 194 682 q 74 516 101 585 q 46 360 46 447 q 73 200 46 269 q 147 83 100 131 q 256 10 193 35 q 392 -15 319 -15 q 544 33 474 -15 q 656 163 615 81 q 764 35 693 85 q 926 -15 835 -15 q 1044 -3 981 -15 q 1176 46 1107 10 l 1139 147 q 1034 108 1078 118 q 942 97 990 97 q 857 116 896 97 q 790 170 818 135 q 745 255 761 206 q 729 365 729 304 "},"æ":{"ha":1181,"x_min":56,"x_max":1111,"o":"m 803 440 q 730 412 757 440 q 688 342 703 383 l 1086 342 q 1103 492 1111 421 q 1060 616 1094 563 q 967 701 1025 669 q 838 733 910 733 q 758 722 797 733 q 685 691 719 711 q 624 643 651 671 q 578 582 596 615 q 485 692 546 651 q 349 732 425 732 q 246 722 301 732 q 124 683 190 713 l 160 588 q 247 613 210 606 q 321 619 285 619 q 450 570 410 619 q 490 442 490 521 l 490 365 q 444 168 490 239 q 314 97 397 97 q 237 127 265 97 q 208 197 208 157 q 216 238 208 222 q 241 267 224 254 q 286 292 258 281 q 356 317 314 303 q 393 335 378 322 q 418 363 408 347 q 433 394 428 378 q 440 424 438 410 q 258 393 332 413 q 140 344 185 374 q 75 276 94 315 q 56 186 56 236 q 120 41 56 97 q 294 -15 185 -15 q 381 -3 339 -15 q 458 35 422 10 q 522 96 494 60 q 567 178 550 132 q 607 103 581 139 q 669 42 633 68 q 748 0 706 15 q 835 -15 790 -15 q 952 -3 889 -15 q 1085 46 1015 10 l 1046 147 q 942 108 986 118 q 850 97 899 97 q 765 117 804 97 q 697 172 725 136 q 653 257 669 207 q 638 368 638 307 q 652 478 638 431 q 692 558 667 526 q 751 607 717 590 q 824 624 785 624 q 885 609 857 624 q 932 569 913 594 q 960 511 951 544 q 964 440 968 478 l 803 440 "},"Â":{"ha":954,"x_min":40,"x_max":915,"o":"m 424 1236 l 274 1071 l 354 1056 l 472 1136 l 590 1056 l 675 1071 l 522 1236 l 424 1236 m 404 1010 l 40 0 l 190 0 l 271 236 l 607 236 q 590 277 600 257 q 565 313 579 297 q 530 339 550 329 q 483 349 510 349 l 319 349 l 301 346 l 317 374 l 472 829 l 756 0 l 915 0 l 551 1010 l 404 1010 "},"Ê":{"ha":801,"x_min":115,"x_max":719,"o":"m 371 1236 l 221 1071 l 301 1056 l 419 1136 l 538 1056 l 622 1071 l 469 1236 l 371 1236 m 444 585 q 398 575 418 585 q 363 550 378 565 q 337 515 347 535 q 319 475 326 496 l 651 475 l 651 585 l 444 585 m 115 0 l 719 0 l 719 113 l 267 113 l 267 897 l 699 897 l 699 1010 l 115 1010 l 115 0 "},"Á":{"ha":954,"x_min":39,"x_max":914,"o":"m 674 1236 l 525 1236 l 403 1064 q 482 1063 438 1054 q 558 1107 526 1071 l 674 1236 m 403 1010 l 39 0 l 190 0 l 271 236 l 606 236 q 588 277 599 257 q 563 313 578 297 q 528 339 549 329 q 482 349 508 349 l 318 349 l 300 346 l 317 374 l 471 829 l 754 0 l 914 0 l 551 1010 l 403 1010 "},"Ë":{"ha":801,"x_min":115,"x_max":719,"o":"m 475 1167 q 498 1113 475 1135 q 553 1090 521 1090 q 607 1113 585 1090 q 629 1167 629 1135 q 607 1221 629 1199 q 553 1243 585 1243 q 498 1221 521 1243 q 475 1167 475 1199 m 206 1167 q 228 1113 206 1135 q 282 1090 250 1090 q 337 1113 314 1090 q 360 1167 360 1135 q 337 1221 360 1199 q 282 1243 314 1243 q 228 1221 250 1243 q 206 1167 206 1199 m 444 585 q 398 575 418 585 q 363 550 378 565 q 337 515 347 535 q 319 475 326 496 l 651 475 l 651 585 l 444 585 m 115 0 l 719 0 l 719 113 l 267 113 l 267 897 l 699 897 l 699 1010 l 115 1010 l 115 0 "},"È":{"ha":801,"x_min":115,"x_max":719,"o":"m 350 1107 q 382 1078 363 1089 q 422 1063 401 1068 q 464 1059 443 1058 q 503 1064 485 1060 l 400 1236 l 253 1236 l 350 1107 m 444 585 q 398 575 418 585 q 363 550 378 565 q 337 515 347 535 q 319 475 326 496 l 651 475 l 651 585 l 444 585 m 115 0 l 719 0 l 719 113 l 267 113 l 267 897 l 699 897 l 699 1010 l 115 1010 l 115 0 "},"Í":{"ha":446,"x_min":110,"x_max":382,"o":"m 382 1236 l 232 1236 l 110 1064 q 190 1063 146 1054 q 267 1107 235 1071 l 382 1236 m 261 1010 l 114 1010 l 114 0 l 261 0 l 261 1010 "},"Î":{"ha":446,"x_min":22,"x_max":424,"o":"m 172 1236 l 22 1071 l 103 1056 l 221 1136 l 339 1056 l 424 1071 l 271 1236 l 172 1236 m 294 1010 l 147 1010 l 147 0 l 294 0 l 294 1010 "},"Ï":{"ha":486,"x_min":28,"x_max":451,"o":"m 297 1167 q 320 1113 297 1135 q 375 1090 343 1090 q 429 1113 407 1090 q 451 1167 451 1135 q 429 1221 451 1199 q 375 1243 407 1243 q 320 1221 343 1243 q 297 1167 297 1199 m 28 1167 q 50 1113 28 1135 q 104 1090 72 1090 q 159 1113 136 1090 q 182 1167 182 1135 q 159 1221 182 1199 q 104 1243 136 1243 q 50 1221 72 1243 q 28 1167 28 1199 m 313 1010 l 167 1010 l 167 0 l 313 0 l 313 1010 "},"Ì":{"ha":388,"x_min":29,"x_max":278,"o":"m 125 1107 q 197 1063 153 1071 q 278 1064 242 1054 l 175 1236 l 29 1236 l 125 1107 m 272 1010 l 126 1010 l 126 0 l 272 0 l 272 1010 "},"Ó":{"ha":1099,"x_min":51,"x_max":1008,"o":"m 744 1236 l 596 1236 l 474 1064 q 553 1063 508 1054 q 629 1107 597 1071 l 744 1236 m 846 506 q 822 338 846 414 q 756 208 799 263 q 656 124 714 154 q 531 93 599 93 q 404 124 463 93 q 303 208 346 154 q 238 338 261 263 q 214 506 214 414 q 238 673 214 597 q 303 803 261 749 q 403 887 346 857 q 531 917 461 917 q 656 887 599 917 q 756 803 714 857 q 822 673 799 749 q 846 506 846 597 m 1008 506 q 972 723 1008 626 q 873 888 936 819 q 722 994 810 957 q 531 1031 635 1031 q 343 993 431 1031 q 191 887 256 956 q 89 721 126 818 q 51 506 51 624 q 88 288 51 385 q 188 122 124 190 q 339 17 251 54 q 531 -19 426 -19 q 716 18 629 -19 q 868 124 803 56 q 971 290 933 193 q 1008 506 1008 386 "},"Ô":{"ha":1099,"x_min":51,"x_max":1008,"o":"m 483 1236 l 333 1071 l 414 1056 l 532 1136 l 650 1056 l 735 1071 l 582 1236 l 483 1236 m 846 506 q 822 338 846 414 q 756 208 799 263 q 656 124 714 154 q 531 93 599 93 q 404 124 463 93 q 303 208 346 154 q 238 338 261 263 q 214 506 214 414 q 238 673 214 597 q 303 803 261 749 q 403 887 346 857 q 531 917 461 917 q 656 887 599 917 q 756 803 714 857 q 822 673 799 749 q 846 506 846 597 m 1008 506 q 972 723 1008 626 q 873 888 936 819 q 722 994 810 957 q 531 1031 635 1031 q 343 993 431 1031 q 191 887 256 956 q 89 721 126 818 q 51 506 51 624 q 88 288 51 385 q 188 122 124 190 q 339 17 251 54 q 531 -19 426 -19 q 716 18 629 -19 q 868 124 803 56 q 971 290 933 193 q 1008 506 1008 386 "},"Ò":{"ha":1099,"x_min":53,"x_max":1008,"o":"m 418 1107 q 449 1078 431 1089 q 489 1063 468 1067 q 531 1059 510 1058 q 571 1064 553 1060 l 468 1236 l 321 1236 l 418 1107 m 847 506 q 824 338 847 414 q 758 208 800 263 q 657 124 715 154 q 531 93 599 93 q 405 124 463 93 q 305 208 347 154 q 239 338 263 263 q 215 506 215 414 q 239 673 215 597 q 305 803 263 749 q 405 887 347 857 q 531 917 463 917 q 657 887 599 917 q 758 803 715 857 q 824 673 800 749 q 847 506 847 597 m 1008 506 q 973 723 1008 626 q 874 888 938 819 q 722 994 810 957 q 531 1031 635 1031 q 343 993 431 1031 q 191 887 256 956 q 90 721 126 818 q 53 506 53 624 q 89 288 53 385 q 189 122 125 190 q 340 17 253 54 q 531 -19 428 -19 q 717 18 629 -19 q 869 124 804 56 q 971 290 933 193 q 1008 506 1008 386 "},"Ú":{"ha":964,"x_min":100,"x_max":864,"o":"m 689 1236 l 540 1236 l 418 1064 q 497 1063 453 1054 q 574 1107 542 1071 l 689 1236 m 482 -19 q 638 9 568 -19 q 758 90 708 38 q 836 215 808 142 q 864 376 864 288 l 864 1010 l 715 1010 l 715 354 q 699 246 715 294 q 651 163 682 197 q 576 111 619 129 q 482 93 533 93 q 387 111 429 93 q 313 163 344 129 q 265 246 282 197 q 249 354 249 294 l 249 1010 l 100 1010 l 100 376 q 126 212 100 285 q 201 88 151 139 q 321 8 250 36 q 482 -19 392 -19 "},"Û":{"ha":964,"x_min":100,"x_max":864,"o":"m 432 1236 l 282 1071 l 363 1056 l 481 1136 l 599 1056 l 683 1071 l 531 1236 l 432 1236 m 482 -19 q 638 9 568 -19 q 758 90 708 38 q 836 215 808 142 q 864 376 864 288 l 864 1010 l 715 1010 l 715 354 q 699 246 715 294 q 651 163 682 197 q 576 111 619 129 q 482 93 533 93 q 387 111 429 93 q 313 163 344 129 q 265 246 282 197 q 249 354 249 294 l 249 1010 l 100 1010 l 100 376 q 126 212 100 285 q 201 88 151 139 q 321 8 250 36 q 482 -19 392 -19 "},"Ù":{"ha":964,"x_min":100,"x_max":864,"o":"m 396 1107 q 468 1063 424 1071 q 549 1064 513 1054 l 446 1236 l 300 1236 l 396 1107 m 482 -19 q 638 9 568 -19 q 758 90 708 38 q 836 215 808 142 q 864 376 864 288 l 864 1010 l 715 1010 l 715 354 q 699 246 715 294 q 651 163 682 197 q 576 111 619 129 q 482 93 533 93 q 387 111 429 93 q 314 163 344 129 q 267 246 283 197 q 250 354 250 294 l 250 1010 l 100 1010 l 100 376 q 126 212 100 285 q 201 88 153 139 q 321 8 250 36 q 482 -19 392 -19 "},"†":{"ha":788,"x_min":21,"x_max":740,"o":"m 142 558 q 226 591 197 558 q 271 668 256 624 l 21 668 l 21 558 l 142 558 m 740 558 l 740 668 l 490 668 q 513 618 500 639 q 547 584 526 597 q 595 565 567 571 q 665 558 624 558 l 740 558 m 442 968 l 319 968 l 319 -42 l 442 -42 l 442 968 "},"°":{"ha":468,"x_min":36,"x_max":450,"o":"m 36 865 q 53 785 36 821 q 98 722 69 749 q 164 681 126 696 q 243 667 201 667 q 317 681 281 667 q 384 720 354 694 q 432 783 414 746 q 450 865 450 819 q 432 949 450 913 q 384 1012 414 986 q 317 1051 354 1038 q 243 1064 281 1064 q 163 1048 200 1064 q 97 1005 125 1032 q 52 942 68 978 q 36 865 36 906 m 243 986 q 322 954 288 986 q 356 865 356 922 q 349 823 356 844 q 327 785 342 801 q 292 757 313 768 q 243 746 271 746 q 161 781 190 746 q 132 865 132 817 q 161 949 132 911 q 243 986 190 986 "},"¢":{"ha":593,"x_min":53,"x_max":586,"o":"m 586 165 l 547 268 q 464 238 500 247 q 399 229 428 229 q 324 246 358 229 q 265 295 290 263 q 224 377 239 328 q 210 492 210 426 q 224 606 210 557 q 265 688 239 656 q 325 737 290 721 q 399 753 360 753 q 460 749 426 753 q 529 733 493 744 l 567 836 q 504 854 536 847 q 442 864 472 861 l 442 994 l 331 994 l 331 858 q 222 819 272 847 q 133 744 171 790 q 74 635 96 699 q 53 492 53 571 q 74 346 53 410 q 132 235 94 282 q 220 160 169 189 q 331 122 271 132 l 331 -19 l 442 -19 l 442 119 q 509 135 472 125 q 586 165 546 146 "},"$":{"ha":714,"x_min":54,"x_max":671,"o":"m 363 875 q 450 869 404 875 q 557 844 496 863 l 600 946 q 504 971 546 961 q 422 985 463 981 l 422 1125 l 308 1125 l 308 986 q 213 961 256 981 q 138 910 169 942 q 88 838 106 879 q 71 750 71 797 q 104 624 71 675 q 188 536 138 574 q 296 469 238 499 q 404 410 354 440 q 488 342 454 379 q 521 249 521 304 q 508 192 521 219 q 469 143 494 164 q 410 110 444 122 q 333 97 375 97 q 223 110 282 97 q 96 154 164 122 l 54 51 q 187 4 122 19 q 308 -15 251 -11 l 308 -149 l 422 -149 l 422 -10 q 528 24 482 0 q 606 83 574 49 q 654 158 638 117 q 671 246 671 200 q 638 376 671 322 q 553 469 604 429 q 444 538 503 508 q 334 599 385 568 q 250 666 283 631 q 217 753 217 701 q 256 839 217 803 q 363 875 294 875 "},"“":{"ha":525,"x_min":67,"x_max":456,"o":"m 201 1010 q 135 1006 161 1019 q 94 965 110 992 q 73 902 79 938 q 67 833 67 867 l 67 725 l 201 725 l 201 1010 m 456 1010 q 390 1006 415 1019 q 349 965 364 992 q 327 902 333 938 q 321 833 321 867 l 321 725 l 456 725 l 456 1010 "},"”":{"ha":533,"x_min":67,"x_max":456,"o":"m 321 725 q 385 731 360 717 q 427 772 411 744 q 449 833 443 799 q 456 901 456 868 l 456 1010 l 321 1010 l 321 725 m 67 725 q 132 731 106 717 q 174 772 158 744 q 195 833 189 799 q 201 901 201 868 l 201 1010 l 67 1010 l 67 725 "},"€":{"ha":819,"x_min":-21,"x_max":724,"o":"m 394 649 q 318 622 346 649 q 276 556 290 596 l 610 556 l 610 649 l 394 649 m -21 344 l 89 344 q 141 199 106 265 q 228 85 176 132 q 347 11 279 38 q 497 -15 414 -15 q 609 -3 556 -15 q 724 33 663 8 l 683 135 q 588 105 629 114 q 497 96 546 96 q 334 164 399 96 q 238 344 269 232 l 290 344 l 610 344 l 610 438 l 224 438 q 222 461 222 449 q 222 486 222 474 q 242 645 222 572 q 299 770 263 718 q 385 851 335 822 q 497 881 436 881 q 583 874 540 881 q 683 846 625 867 l 724 947 q 606 981 657 972 q 497 990 556 990 q 351 965 418 990 q 234 896 285 940 q 147 788 183 851 q 93 649 111 725 l -21 649 l -21 556 l 78 556 q 75 521 75 538 q 75 486 75 504 q 75 461 75 474 q 76 438 75 449 l -21 438 l -21 344 "},"£":{"ha":713,"x_min":69,"x_max":707,"o":"m 628 439 l 628 543 l 406 543 q 448 470 421 501 q 528 439 475 439 l 628 439 m 365 274 q 373 376 375 325 q 364 480 371 426 q 349 590 357 533 q 342 710 342 647 q 380 831 342 786 q 493 876 418 876 q 569 867 522 876 q 668 833 615 857 l 707 938 q 593 977 644 965 q 493 989 542 989 q 378 971 432 989 q 285 917 325 953 q 224 830 246 882 q 201 711 201 778 q 206 621 201 667 q 217 543 210 575 l 99 543 l 99 439 l 232 439 q 239 386 238 411 q 240 336 240 361 q 192 191 240 254 q 69 90 144 128 l 69 0 l 671 0 l 671 124 l 303 124 l 268 121 l 296 147 q 338 206 321 178 q 365 274 354 235 "},"§":{"ha":694,"x_min":50,"x_max":640,"o":"m 510 458 q 490 397 510 426 q 428 342 471 368 q 347 374 386 358 q 275 406 307 389 q 224 443 243 422 q 204 492 204 464 q 229 552 204 525 q 300 600 254 579 q 376 570 339 585 q 444 540 414 556 q 492 504 474 524 q 510 458 510 485 m 50 -12 q 218 -61 142 -51 q 354 -71 294 -71 q 460 -56 410 -71 q 547 -15 510 -42 q 606 48 585 11 q 628 129 628 85 q 604 217 628 181 q 544 281 581 253 l 515 293 l 547 306 q 615 368 589 331 q 640 451 640 406 q 610 551 640 511 q 533 619 579 592 q 432 667 486 647 q 331 706 378 686 q 254 751 285 726 q 224 814 224 776 q 260 873 224 853 q 364 893 297 893 q 442 887 399 893 q 538 865 485 881 l 578 964 q 451 992 507 985 q 347 1000 394 1000 q 240 984 288 1000 q 158 942 192 968 q 106 881 124 915 q 88 813 88 847 q 113 724 88 760 q 178 660 138 688 l 207 647 l 172 633 q 99 567 124 606 q 74 489 74 528 q 104 392 74 431 q 181 326 135 353 q 282 280 228 299 q 383 241 336 261 q 460 196 429 221 q 490 133 490 171 q 451 63 490 89 q 335 38 413 38 q 219 49 282 38 q 93 86 156 61 l 50 -12 "},"´":{"ha":447,"x_min":90,"x_max":364,"o":"m 364 1028 l 213 1028 l 90 836 q 169 835 125 826 q 246 882 214 843 l 364 1028 "},"¨":{"ha":614,"x_min":81,"x_max":506,"o":"m 350 931 q 373 876 350 899 q 428 854 396 854 q 483 876 460 854 q 506 931 506 899 q 483 985 506 963 q 428 1007 460 1007 q 373 985 396 1007 q 350 931 350 963 m 81 931 q 103 876 81 899 q 157 854 125 854 q 212 876 189 854 q 235 931 235 899 q 212 985 235 963 q 157 1007 189 1007 q 103 985 125 1007 q 81 931 81 963 "},"’":{"ha":297,"x_min":90,"x_max":225,"o":"m 90 725 q 156 731 129 717 q 197 772 182 744 q 219 833 213 799 q 225 901 225 868 l 225 1010 l 90 1010 l 90 725 "},"‘":{"ha":285,"x_min":72,"x_max":207,"o":"m 207 1010 q 141 1006 167 1019 q 100 965 115 992 q 78 902 85 938 q 72 833 72 867 l 72 725 l 207 725 l 207 1010 "},"‚":{"ha":274,"x_min":78,"x_max":213,"o":"m 78 -149 q 143 -143 117 -157 q 185 -102 169 -129 q 206 -40 200 -75 q 213 28 213 -6 l 213 136 l 78 136 l 78 -149 "},"„":{"ha":515,"x_min":68,"x_max":456,"o":"m 321 -149 q 386 -143 360 -157 q 428 -102 413 -129 q 449 -40 443 -75 q 456 28 456 -6 l 456 136 l 321 136 l 321 -149 m 68 -149 q 133 -143 107 -157 q 175 -102 160 -129 q 197 -40 190 -75 q 203 28 203 -6 l 203 136 l 68 136 l 68 -149 "},"¸":{"ha":694,"x_min":214,"x_max":489,"o":"m 321 -3 l 290 -119 q 366 -137 339 -125 q 393 -175 393 -150 q 371 -206 393 -197 q 325 -215 349 -215 q 283 -212 304 -215 q 236 -197 263 -208 l 214 -262 q 274 -283 247 -278 q 325 -289 301 -289 q 383 -282 354 -289 q 436 -261 413 -275 q 474 -225 460 -247 q 489 -171 489 -203 q 479 -131 489 -149 q 453 -99 469 -112 q 417 -78 438 -86 q 376 -67 397 -69 l 394 3 l 321 -3 "},"·":{"ha":425,"x_min":119,"x_max":304,"o":"m 119 422 q 145 357 119 383 q 211 331 171 331 q 278 357 251 331 q 304 422 304 383 q 278 490 304 463 q 211 517 251 517 q 145 490 171 517 q 119 422 119 463 "},"ˆ":{"ha":631,"x_min":146,"x_max":546,"o":"m 296 1032 l 146 832 l 226 817 l 344 929 l 463 818 l 546 832 l 394 1032 l 296 1032 "},"˜":{"ha":692,"x_min":192,"x_max":608,"o":"m 276 858 q 294 917 279 900 q 325 933 308 933 q 358 922 343 933 q 391 895 374 910 q 431 869 408 881 q 488 857 454 857 q 528 865 507 857 q 566 890 549 872 q 594 938 583 908 q 608 1011 606 967 l 526 1019 q 513 964 524 983 q 483 944 503 944 q 446 956 463 944 q 411 983 429 968 q 372 1009 393 997 q 319 1021 350 1021 q 232 983 269 1021 q 192 867 194 944 l 276 858 "},"¯":{"ha":694,"x_min":158,"x_max":567,"o":"m 567 847 l 567 944 l 158 944 l 158 847 l 567 847 "},"‰":{"ha":1547,"x_min":51,"x_max":1469,"o":"m 1356 236 q 1331 106 1356 149 q 1264 63 1307 63 q 1199 106 1224 63 q 1175 236 1175 149 q 1199 365 1175 322 q 1264 408 1224 408 q 1331 365 1307 408 q 1356 236 1356 322 m 1469 236 q 1413 423 1469 357 q 1264 489 1356 489 q 1117 423 1172 489 q 1061 236 1061 357 q 1117 48 1061 114 q 1264 -18 1172 -18 q 1413 48 1356 -18 q 1469 236 1469 114 m 869 236 q 845 106 869 149 q 778 63 821 63 q 714 106 738 63 q 690 236 690 149 q 714 365 690 322 q 778 408 738 408 q 845 365 821 408 q 869 236 869 322 m 985 236 q 927 423 985 357 q 778 489 869 489 q 631 423 686 489 q 575 236 575 357 q 631 48 575 114 q 778 -18 686 -18 q 927 48 869 -18 q 985 236 985 114 m 346 742 q 322 612 346 654 q 257 569 299 569 q 191 612 215 569 q 167 742 167 654 q 191 872 167 829 q 257 914 215 914 q 322 872 299 914 q 346 742 346 829 m 461 742 q 405 930 461 864 q 257 996 349 996 q 108 930 164 996 q 51 742 51 864 q 108 553 51 619 q 257 488 164 488 q 405 553 349 488 q 461 742 461 619 m 69 0 l 197 0 l 976 975 l 849 975 l 69 0 "},"Æ":{"ha":1354,"x_min":21,"x_max":1269,"o":"m 972 585 q 924 576 944 585 q 888 551 903 567 q 863 516 872 536 q 846 475 853 496 l 1186 475 l 1186 585 l 972 585 m 729 0 l 1269 0 l 1269 113 l 853 113 l 733 897 l 1172 897 l 1172 1010 l 535 1010 l 21 0 l 175 0 l 292 236 l 642 236 q 624 277 635 257 q 599 313 614 297 q 563 339 583 329 q 517 349 543 349 l 364 349 l 338 346 l 358 374 l 579 819 l 599 874 l 603 819 q 608 781 606 800 q 614 744 611 763 l 729 0 "},"™":{"ha":1011,"x_min":38,"x_max":933,"o":"m 421 596 l 504 596 l 531 894 q 531 908 531 901 q 532 921 532 914 l 640 603 l 718 603 l 826 921 l 826 893 l 856 596 l 933 596 l 889 1011 l 782 1011 l 683 717 l 679 697 l 675 717 l 576 1011 l 467 1011 l 421 596 m 160 949 l 160 596 l 244 596 l 244 949 l 367 949 l 367 1011 l 38 1011 l 38 949 l 160 949 "},"Ø":{"ha":1099,"x_min":53,"x_max":1008,"o":"m 850 506 q 826 338 850 414 q 759 208 801 263 q 658 122 717 153 q 531 92 599 92 q 404 122 463 92 q 303 208 346 153 q 235 338 260 263 q 211 506 211 414 q 235 674 211 597 q 302 804 260 750 q 403 889 344 858 q 531 919 461 919 q 610 908 571 919 q 681 875 649 896 l 369 356 q 360 265 346 310 q 401 189 375 221 l 761 797 q 826 670 801 744 q 850 506 850 596 m 938 1096 l 811 1096 l 743 982 q 531 1031 649 1031 q 343 993 431 1031 q 191 887 256 956 q 90 721 126 818 q 53 506 53 624 q 99 260 53 367 q 226 86 144 154 l 126 -83 l 253 -83 l 317 28 q 531 -19 415 -19 q 716 18 629 -19 q 868 124 803 56 q 971 290 933 193 q 1008 506 1008 386 q 963 749 1008 643 q 836 924 917 854 l 938 1096 "},"Ÿ":{"ha":917,"x_min":29,"x_max":858,"o":"m 508 1167 q 531 1113 508 1135 q 586 1090 554 1090 q 640 1113 618 1090 q 663 1167 663 1135 q 640 1221 663 1199 q 586 1243 618 1243 q 531 1221 554 1243 q 508 1167 508 1199 m 239 1167 q 261 1113 239 1135 q 315 1090 283 1090 q 370 1113 347 1090 q 393 1167 393 1135 q 370 1221 393 1199 q 315 1243 347 1243 q 261 1221 283 1243 q 239 1167 239 1199 m 531 719 q 514 664 515 692 q 519 610 513 636 q 538 562 525 585 q 563 522 550 539 l 858 1010 l 693 1010 l 531 719 m 199 1010 l 29 1010 l 375 435 l 375 0 l 522 0 l 522 469 l 199 1010 "},"ÿ":{"ha":735,"x_min":14,"x_max":722,"o":"m 429 931 q 452 876 429 899 q 507 854 475 854 q 561 876 539 854 q 583 931 583 899 q 561 985 583 963 q 507 1007 539 1007 q 452 985 475 1007 q 429 931 429 963 m 160 931 q 182 876 160 899 q 236 854 204 854 q 291 876 268 854 q 314 931 314 899 q 291 985 314 963 q 236 1007 268 1007 q 182 985 204 1007 q 160 931 160 963 m 163 -231 q 78 -218 124 -231 l 42 -319 q 163 -343 104 -340 q 274 -316 229 -343 q 352 -241 319 -289 q 411 -128 385 -193 q 468 15 438 -62 l 722 718 l 568 718 l 356 51 q 316 -62 335 -11 q 276 -151 297 -114 q 228 -210 256 -189 q 163 -231 201 -231 m 171 718 l 14 718 l 274 15 q 299 61 288 33 q 316 122 310 89 q 322 190 322 154 q 313 261 321 226 q 246 489 285 374 q 171 718 207 604 "},"‡":{"ha":849,"x_min":54,"x_max":774,"o":"m 175 586 q 260 619 231 586 q 304 696 289 651 l 54 696 l 54 586 l 175 586 m 774 586 l 774 696 l 524 696 q 547 646 533 667 q 580 612 560 625 q 628 592 600 599 q 699 586 657 586 l 774 586 m 175 231 q 260 263 231 231 q 304 340 289 296 l 54 340 l 54 231 l 175 231 m 774 231 l 774 340 l 524 340 q 568 263 539 296 q 653 231 597 231 l 774 231 m 475 968 l 353 968 l 353 -42 l 475 -42 l 475 968 "},"•":{"ha":694,"x_min":246,"x_max":471,"o":"m 246 438 q 277 358 246 389 q 357 326 308 326 q 438 358 406 326 q 471 438 471 389 q 438 519 471 486 q 357 551 406 551 q 277 519 308 551 q 246 438 246 486 "},"¶":{"ha":846,"x_min":144,"x_max":765,"o":"m 451 -42 l 553 -42 l 553 925 q 605 922 578 924 q 664 914 632 919 l 664 -42 l 765 -42 l 765 1000 q 692 1013 726 1008 q 626 1022 658 1018 q 561 1026 594 1025 q 490 1028 528 1028 q 342 1003 407 1028 q 234 935 278 978 q 167 838 190 893 q 144 722 144 782 q 169 606 144 658 q 234 514 193 553 q 331 452 275 475 q 449 424 386 429 q 451 422 449 424 l 451 -42 "},"ß":{"ha":788,"x_min":117,"x_max":767,"o":"m 346 35 q 459 -8 413 1 q 547 -17 506 -17 q 631 -1 592 -17 q 701 41 671 14 q 749 106 732 68 q 767 186 767 143 q 749 281 767 242 q 704 350 731 321 q 646 402 678 379 q 588 448 614 425 q 543 497 561 471 q 525 557 525 522 q 550 622 525 597 q 622 669 575 647 q 660 746 649 711 q 672 817 672 781 q 654 911 672 867 q 602 988 636 956 q 517 1040 568 1021 q 403 1060 467 1060 q 286 1039 339 1060 q 196 979 233 1018 q 138 884 158 940 q 117 757 117 828 l 117 0 l 257 0 l 257 771 q 271 853 257 818 q 307 910 285 888 q 358 942 329 932 q 417 953 388 953 q 467 942 443 953 q 510 914 492 932 q 540 871 529 896 q 551 817 551 846 q 543 753 551 783 q 427 670 468 722 q 386 557 386 618 q 404 465 386 503 q 449 399 422 428 q 507 347 475 369 q 565 302 539 325 q 610 253 592 279 q 628 192 628 226 q 600 122 628 149 q 532 96 572 96 q 467 104 504 96 q 383 132 429 113 l 346 35 "},"©":{"ha":1000,"x_min":40,"x_max":947,"o":"m 524 244 q 579 251 546 244 q 651 276 613 257 l 626 347 q 569 326 594 332 q 524 321 543 321 q 433 366 471 321 q 396 496 396 411 q 433 624 396 579 q 524 668 471 668 q 567 665 544 668 q 614 653 589 661 l 639 726 q 524 746 578 746 q 436 729 478 746 q 363 681 394 713 q 313 603 332 650 q 294 496 294 556 q 313 388 294 435 q 362 310 331 342 q 435 261 393 278 q 524 244 476 244 m 496 861 q 634 835 571 861 q 742 760 697 808 q 813 644 788 711 q 839 496 839 576 q 813 344 839 413 q 742 227 788 275 q 634 153 697 179 q 496 128 571 126 q 356 154 419 128 q 246 228 292 181 q 174 342 200 275 q 149 492 149 410 q 174 642 149 575 q 246 758 200 710 q 356 834 292 807 q 496 861 419 861 m 496 949 q 311 913 394 949 q 167 815 228 876 q 74 671 107 753 q 40 496 40 589 q 74 316 40 400 q 167 171 107 232 q 310 74 226 110 q 496 39 394 39 q 679 75 596 39 q 822 173 763 111 q 914 318 881 235 q 947 496 947 401 q 915 673 947 590 q 822 817 882 756 q 679 913 763 878 q 496 949 596 949 "},"®":{"ha":1000,"x_min":40,"x_max":947,"o":"m 682 599 q 628 706 682 667 q 492 744 575 744 q 420 740 456 744 q 344 725 385 735 l 344 263 l 439 263 l 439 667 q 469 670 458 669 q 492 671 479 671 q 558 650 533 671 q 583 599 583 629 q 569 551 583 572 q 531 526 554 531 q 487 500 500 521 q 467 460 474 479 l 501 460 q 540 428 526 450 q 561 379 553 407 q 577 321 569 351 q 597 263 585 290 l 697 263 q 672 329 681 297 q 655 390 664 361 q 632 440 646 418 q 592 478 618 463 q 658 524 635 493 q 682 599 682 556 m 496 861 q 634 835 571 861 q 742 760 697 808 q 813 644 788 711 q 839 496 839 576 q 813 344 839 413 q 742 227 788 275 q 634 153 697 179 q 496 128 571 126 q 356 154 419 128 q 246 228 292 181 q 174 342 200 275 q 149 492 149 410 q 174 642 149 575 q 246 758 200 710 q 356 834 292 807 q 496 861 419 861 m 496 949 q 311 913 394 949 q 167 815 228 876 q 74 671 107 753 q 40 496 40 589 q 74 316 40 400 q 167 171 107 232 q 310 74 226 110 q 496 39 394 39 q 679 75 596 39 q 822 173 763 111 q 914 318 881 235 q 947 496 947 401 q 915 673 947 590 q 822 817 882 756 q 679 913 763 878 q 496 949 596 949 "},">":{"ha":851,"x_min":58,"x_max":776,"o":"m 58 132 l 58 0 l 776 340 l 776 426 l 58 767 l 58 635 l 600 393 l 636 383 l 600 375 q 329 253 464 313 q 58 132 194 193 "},"±":{"ha":789,"x_min":65,"x_max":715,"o":"m 715 0 l 715 101 l 65 101 l 65 0 l 715 0 m 65 414 l 332 414 l 332 178 l 447 178 l 447 414 l 715 414 l 715 517 l 447 517 l 447 750 l 332 750 l 332 517 l 65 517 l 65 414 "},"¥":{"ha":917,"x_min":29,"x_max":860,"o":"m 532 719 q 515 664 517 692 q 520 610 514 636 q 538 562 526 585 q 563 522 550 539 l 860 1010 l 693 1010 l 532 719 m 154 360 l 376 360 l 376 261 l 154 261 l 154 188 l 376 188 l 376 0 l 524 0 l 524 188 l 744 188 l 744 261 l 524 261 l 524 360 l 744 360 l 744 433 l 524 433 l 524 469 l 199 1010 l 29 1010 l 376 435 l 376 433 l 154 433 l 154 360 "},"ª":{"ha":732,"x_min":58,"x_max":483,"o":"m 468 725 q 414 878 468 824 q 263 932 360 932 q 192 926 231 932 q 107 899 154 919 l 131 829 q 191 847 164 842 q 244 853 218 853 q 335 822 307 853 q 364 732 364 790 l 364 556 q 303 503 336 519 q 239 488 271 488 q 185 507 204 488 q 167 554 167 526 q 185 602 167 581 q 260 633 203 624 q 292 646 279 636 q 312 668 304 656 q 324 694 319 681 q 329 715 328 707 q 203 693 254 707 q 119 659 151 679 q 72 611 86 639 q 58 547 58 583 q 103 448 58 486 q 222 410 149 410 q 292 422 260 410 q 360 469 325 435 l 371 486 q 381 448 371 465 q 406 419 390 431 l 483 419 q 472 487 476 446 q 468 586 468 528 l 468 725 "},"…":{"ha":1185,"x_min":119,"x_max":1054,"o":"m 869 71 q 895 5 869 31 q 961 -21 921 -21 q 1028 5 1001 -21 q 1054 71 1054 31 q 1028 138 1054 111 q 961 164 1001 164 q 895 138 921 164 q 869 71 869 111 m 494 71 q 520 5 494 31 q 586 -21 546 -21 q 653 5 626 -21 q 679 71 679 31 q 653 138 679 111 q 586 164 626 164 q 520 138 546 164 q 494 71 494 111 m 119 71 q 145 5 119 31 q 211 -21 171 -21 q 278 5 251 -21 q 304 71 304 31 q 278 138 304 111 q 211 164 251 164 q 145 138 171 164 q 119 71 119 111 "},"Š":{"ha":769,"x_min":75,"x_max":708,"o":"m 439 1057 l 592 1222 l 507 1238 l 389 1157 l 271 1238 l 190 1222 l 340 1057 l 439 1057 m 390 915 q 481 909 431 915 q 593 885 532 903 l 635 985 q 498 1018 558 1008 q 376 1028 438 1028 q 262 1009 314 1028 q 171 957 210 990 q 110 876 132 924 q 89 772 89 829 q 124 642 89 694 q 210 551 158 589 q 323 483 263 513 q 435 422 383 453 q 522 351 488 390 q 557 256 557 313 q 504 142 557 189 q 360 96 451 96 q 247 108 311 96 q 117 151 183 121 l 75 50 q 233 -2 154 13 q 371 -17 311 -17 q 513 5 450 -17 q 619 63 575 26 q 685 148 663 99 q 708 254 708 197 q 674 388 708 333 q 586 484 639 443 q 472 556 533 525 q 358 619 411 588 q 271 688 306 651 q 236 778 236 725 q 276 875 236 835 q 390 915 315 915 "},"‹":{"ha":851,"x_min":264,"x_max":636,"o":"m 571 68 l 636 131 l 444 358 l 636 586 l 571 650 l 264 358 l 571 68 "},"›":{"ha":851,"x_min":271,"x_max":643,"o":"m 643 358 l 336 650 l 271 586 l 463 358 l 271 131 l 336 68 l 643 358 "},"»":{"ha":851,"x_min":86,"x_max":815,"o":"m 815 358 l 508 650 l 443 586 l 635 358 l 443 131 l 508 68 l 815 358 m 458 358 l 151 650 l 86 586 l 279 358 l 86 131 l 151 68 l 458 358 "},"«":{"ha":851,"x_min":90,"x_max":819,"o":"m 754 68 l 819 131 l 626 358 l 819 586 l 754 650 l 447 358 l 754 68 m 397 68 l 463 131 l 269 358 l 463 586 l 397 650 l 90 358 l 397 68 "},"ƒ":{"ha":728,"x_min":-1,"x_max":707,"o":"m 22 -196 q 132 -159 82 -182 q 219 -101 182 -136 q 281 -15 257 -65 q 311 104 304 35 l 369 694 q 391 776 375 742 q 431 834 407 811 q 485 868 456 857 q 544 879 514 879 q 595 874 567 879 q 664 854 624 869 l 707 950 q 615 980 658 972 q 538 988 572 988 q 419 966 472 988 q 326 905 365 944 q 262 809 286 865 q 231 685 238 753 l 226 646 l 104 618 l 104 539 l 215 539 l 171 97 q 151 15 167 49 q 113 -41 136 -18 q 61 -78 90 -64 q -1 -104 32 -93 l 22 -196 m 538 646 q 453 613 485 646 q 404 539 422 579 l 615 539 l 615 646 l 538 646 "},"Ž":{"ha":831,"x_min":114,"x_max":849,"o":"m 554 1057 l 707 1222 l 622 1238 l 504 1157 l 386 1238 l 306 1222 l 456 1057 l 554 1057 m 169 899 l 626 899 l 660 903 l 638 879 l 114 61 l 114 0 l 849 0 l 849 113 l 319 113 l 289 108 l 310 129 l 835 949 l 835 1010 l 169 1010 l 169 899 "},"š":{"ha":578,"x_min":43,"x_max":543,"o":"m 344 818 l 497 1018 l 414 1032 l 296 921 l 178 1033 l 97 1018 l 247 818 l 344 818 m 43 44 q 122 13 85 25 q 190 -5 158 1 q 251 -12 222 -11 q 306 -14 279 -14 q 396 2 353 -14 q 472 46 439 18 q 524 110 504 74 q 543 190 543 147 q 518 288 543 249 q 456 353 493 326 q 375 400 418 381 q 294 439 332 419 q 232 482 257 458 q 207 540 207 506 q 236 601 207 581 q 311 621 265 621 q 378 615 343 621 q 461 594 414 610 l 496 694 q 387 723 435 715 q 297 731 339 731 q 195 713 239 731 q 122 668 151 696 q 79 606 93 640 q 65 539 65 572 q 90 444 65 482 q 153 379 115 406 q 233 334 190 353 q 314 296 276 315 q 376 253 351 276 q 401 193 401 229 q 373 126 401 153 q 285 99 344 99 q 188 110 240 99 q 79 147 136 121 l 43 44 "},"–":{"ha":750,"x_min":63,"x_max":651,"o":"m 651 331 l 651 433 l 63 433 l 63 331 l 651 331 "},"—":{"ha":1179,"x_min":63,"x_max":1089,"o":"m 1089 331 l 1089 433 l 63 433 l 63 331 l 1089 331 "},"ž":{"ha":622,"x_min":47,"x_max":593,"o":"m 381 818 l 533 1018 l 450 1032 l 332 921 l 214 1033 l 133 1018 l 283 818 l 381 818 m 90 614 l 388 614 l 417 618 l 396 594 l 47 61 l 47 0 l 593 0 l 593 107 l 250 107 l 219 103 l 240 126 q 256 150 249 138 q 272 175 264 163 l 586 657 l 586 718 l 90 718 l 90 614 "},"¡":{"ha":488,"x_min":68,"x_max":253,"o":"m 68 647 q 94 580 68 607 q 160 553 119 553 q 226 580 200 553 q 253 647 253 607 q 226 713 253 688 q 160 739 200 739 q 94 713 119 739 q 68 647 68 688 m 238 -292 l 215 443 l 107 443 l 88 -292 l 238 -292 "},"¿":{"ha":810,"x_min":142,"x_max":664,"o":"m 564 647 q 538 712 564 686 q 471 738 511 738 q 404 712 431 738 q 378 647 378 686 q 404 580 378 607 q 471 553 431 553 q 538 580 511 553 q 564 647 564 607 m 425 -306 q 540 -294 483 -306 q 664 -249 596 -283 l 625 -144 q 523 -184 567 -175 q 439 -193 479 -193 q 335 -159 375 -193 q 296 -72 296 -125 q 313 6 296 -29 q 356 74 331 40 q 413 142 382 107 q 469 219 443 176 q 512 317 494 263 q 529 443 529 371 l 411 443 q 391 338 411 385 q 341 249 371 290 q 276 170 311 208 q 212 92 242 132 q 162 8 182 53 q 142 -93 142 -37 q 163 -178 142 -139 q 221 -246 183 -218 q 310 -290 258 -274 q 425 -306 363 -306 "},"µ":{"ha":768,"x_min":96,"x_max":778,"o":"m 563 113 l 569 82 q 620 10 585 31 q 696 -11 656 -11 q 733 -8 711 -11 q 778 6 754 -4 l 764 103 q 704 124 721 100 q 688 206 688 147 l 688 718 l 544 718 l 544 276 q 531 208 544 240 q 495 151 518 175 q 442 114 472 128 q 381 100 413 100 q 274 154 310 100 q 238 292 238 208 l 238 718 l 96 718 l 96 -293 l 229 -293 l 229 18 q 228 38 229 29 q 228 58 228 47 l 247 31 q 301 -2 269 10 q 368 -14 333 -14 q 477 15 435 -14 q 547 81 519 43 l 563 113 "},"¦":{"ha":353,"x_min":117,"x_max":247,"o":"m 247 -407 l 247 196 l 117 196 l 117 -407 l 247 -407 m 247 538 l 247 1126 l 117 1126 l 117 538 l 247 538 "},"¬":{"ha":799,"x_min":60,"x_max":742,"o":"m 60 615 l 60 513 l 626 513 l 626 217 l 742 217 l 742 615 l 60 615 "},"­":{"ha":521,"x_min":63,"x_max":482,"o":"m 482 372 l 482 475 l 63 475 l 63 372 l 482 372 "},"Ð":{"ha":990,"x_min":1,"x_max":972,"o":"m 1 443 l 115 443 l 115 0 l 265 0 l 265 443 l 571 443 l 571 544 l 265 544 l 265 904 q 335 911 299 908 q 410 914 372 914 q 713 806 614 914 q 811 507 811 697 q 789 351 811 425 q 725 219 767 276 q 626 129 683 163 q 497 96 568 96 q 477 96 486 96 q 453 97 468 96 q 372 72 404 100 q 319 7 339 43 q 374 -5 350 0 q 420 -12 399 -10 q 462 -16 442 -15 q 504 -17 482 -17 q 686 23 601 -17 q 835 133 771 63 q 935 299 899 203 q 972 507 972 394 q 935 722 972 625 q 825 886 897 818 q 649 991 753 954 q 410 1028 544 1028 q 269 1019 349 1028 q 115 993 189 1011 l 115 544 l 1 544 l 1 443 "},"×":{"ha":789,"x_min":69,"x_max":710,"o":"m 143 104 l 390 349 l 636 104 l 710 178 l 465 425 l 707 669 l 633 743 l 390 500 l 144 743 l 69 669 l 314 425 l 69 178 l 143 104 "},"ý":{"ha":735,"x_min":14,"x_max":722,"o":"m 588 1028 l 436 1028 l 313 836 q 393 835 349 826 q 468 882 438 843 l 588 1028 m 164 -231 q 78 -218 125 -231 l 42 -319 q 164 -343 104 -340 q 275 -316 231 -343 q 353 -241 319 -289 q 413 -128 386 -193 q 468 15 439 -62 l 722 718 l 568 718 l 356 51 q 316 -62 335 -11 q 276 -151 297 -114 q 229 -210 256 -189 q 164 -231 203 -231 m 172 718 l 14 718 l 274 15 q 300 61 289 33 q 317 122 311 89 q 322 190 322 154 q 313 261 321 226 q 247 489 285 374 q 172 718 208 604 "},"Ý":{"ha":917,"x_min":29,"x_max":860,"o":"m 683 1236 l 535 1236 l 413 1064 q 492 1063 447 1054 q 568 1107 536 1071 l 683 1236 m 532 719 q 515 664 517 692 q 520 610 514 636 q 539 562 526 585 q 564 522 551 539 l 860 1010 l 694 1010 l 532 719 m 199 1010 l 29 1010 l 376 435 l 376 0 l 524 0 l 524 469 l 199 1010 "},"þ":{"ha":831,"x_min":119,"x_max":753,"o":"m 119 -335 l 261 -335 l 261 4 q 327 -11 297 -7 q 393 -15 357 -15 q 540 13 474 -15 q 654 93 607 42 q 727 215 701 144 q 753 369 753 286 q 729 518 753 451 q 666 631 706 585 q 574 703 626 678 q 461 728 521 728 q 388 718 429 728 q 310 692 346 708 q 356 634 331 656 q 418 615 382 613 q 549 553 503 619 q 596 369 596 486 q 582 258 596 308 q 542 173 568 208 q 478 117 515 138 q 393 97 440 97 q 328 101 363 97 q 261 117 294 106 l 261 1053 l 119 1053 l 119 -335 "},"Þ":{"ha":846,"x_min":119,"x_max":783,"o":"m 783 504 q 756 628 783 571 q 679 726 729 685 q 560 792 629 768 q 407 815 490 815 q 334 813 368 815 q 265 808 300 811 l 265 1010 l 119 1010 l 119 0 l 265 0 l 265 693 q 335 699 303 697 q 407 701 368 701 q 492 686 453 701 q 561 644 532 671 q 607 582 590 618 q 624 504 624 546 q 608 427 624 463 q 566 365 592 392 q 507 324 540 339 q 440 308 474 310 q 365 278 396 307 q 319 213 335 249 q 393 199 358 201 q 458 200 428 197 q 579 228 521 206 q 683 290 638 251 q 756 382 729 328 q 783 504 783 436 "},"ø":{"ha":694,"x_min":46,"x_max":735,"o":"m 582 358 q 567 245 582 294 q 526 163 553 196 q 465 112 500 129 q 390 94 431 94 q 315 112 350 94 q 254 163 281 129 q 213 247 228 197 q 199 360 199 296 q 213 473 199 424 q 254 556 228 522 q 315 606 281 589 q 390 624 350 624 q 482 596 439 624 l 310 308 q 301 228 290 269 q 335 160 311 188 l 547 518 q 572 447 563 486 q 582 358 582 407 m 735 360 q 705 526 735 454 q 624 646 675 597 l 713 796 l 601 796 l 544 700 q 469 724 508 715 q 390 733 431 733 q 257 708 319 733 q 148 633 194 682 q 74 516 101 585 q 46 360 46 447 q 78 186 46 260 q 165 64 110 113 l 74 -92 l 189 -92 l 249 13 q 390 -15 315 -15 q 524 10 461 -15 q 633 85 586 36 q 707 203 679 133 q 735 360 735 272 "},"÷":{"ha":789,"x_min":65,"x_max":715,"o":"m 315 156 q 336 103 315 124 q 389 82 357 82 q 444 103 422 82 q 465 156 465 124 q 444 210 465 189 q 389 232 422 232 q 336 210 357 232 q 315 156 315 189 m 315 686 q 336 633 315 654 q 389 613 357 613 q 444 633 422 613 q 465 686 465 654 q 444 741 465 719 q 389 763 422 763 q 336 741 357 763 q 315 686 315 719 m 65 372 l 715 372 l 715 475 l 65 475 l 65 372 "},"¤":{"ha":713,"x_min":38,"x_max":679,"o":"m 354 668 q 421 651 392 668 q 470 608 450 635 q 501 547 490 581 q 513 476 513 513 q 499 391 513 428 q 463 329 485 354 q 411 292 440 304 q 353 279 382 279 q 297 292 325 279 q 247 328 269 304 q 210 389 225 353 q 196 472 196 425 q 207 549 196 513 q 239 611 218 585 q 289 653 260 638 q 354 668 318 668 m 356 756 q 269 740 310 756 q 200 701 228 725 l 97 800 l 38 738 l 143 639 q 106 568 122 611 q 90 472 90 525 q 106 376 90 419 q 140 307 121 333 l 38 208 l 99 146 l 199 244 q 268 205 226 219 q 354 190 310 190 q 442 205 399 190 q 514 247 485 219 l 617 147 l 676 207 l 569 310 q 603 379 589 336 q 617 478 617 422 q 603 569 617 528 q 569 639 589 611 l 679 738 l 621 800 l 514 701 q 445 740 486 725 q 356 756 404 756 "},"¹":{"ha":443,"x_min":122,"x_max":354,"o":"m 354 429 l 354 1010 l 303 1010 l 122 913 l 163 840 l 247 883 l 247 429 l 354 429 "},"º":{"ha":597,"x_min":58,"x_max":536,"o":"m 168 671 q 176 740 168 707 q 201 797 185 772 q 241 837 217 822 q 297 851 265 851 q 357 836 332 851 q 398 796 382 821 q 421 738 414 771 q 428 671 428 706 q 419 602 428 635 q 394 544 411 569 q 353 505 378 519 q 297 490 329 490 q 203 538 238 490 q 168 671 168 585 m 297 408 q 396 428 351 408 q 472 482 440 447 q 519 565 503 517 q 536 671 536 613 q 518 782 536 733 q 468 864 500 831 q 392 915 436 897 q 297 932 349 932 q 197 911 240 932 q 122 855 153 890 q 74 772 90 819 q 58 671 58 725 q 76 561 58 610 q 124 478 93 513 q 199 426 156 444 q 297 408 243 408 "},"²":{"ha":558,"x_min":100,"x_max":464,"o":"m 458 872 q 443 936 458 908 q 402 983 428 964 q 342 1013 376 1003 q 269 1022 308 1022 q 199 1015 236 1022 q 125 988 163 1008 l 158 918 q 257 942 213 942 q 327 923 300 942 q 354 863 354 904 q 329 783 354 822 q 267 699 304 743 q 184 603 229 656 q 100 485 139 551 l 100 431 l 464 431 l 464 518 l 243 518 l 225 515 l 238 529 q 300 610 263 571 q 373 692 338 650 q 433 778 408 733 q 458 872 458 822 "},"³":{"ha":529,"x_min":76,"x_max":436,"o":"m 417 888 q 369 985 417 950 q 244 1021 321 1021 q 174 1014 210 1021 q 99 986 138 1007 l 132 917 q 236 939 192 939 q 280 928 263 939 q 304 901 297 918 q 308 865 311 886 q 279 816 306 835 q 218 782 253 797 l 174 764 l 182 699 q 292 675 253 699 q 331 601 331 651 q 301 531 331 563 q 218 500 272 500 q 155 508 182 500 q 103 528 128 517 l 76 457 q 135 431 97 444 q 219 418 172 418 q 307 432 267 418 q 376 471 347 446 q 420 528 404 496 q 436 599 436 561 q 425 655 436 629 q 397 699 414 681 q 356 731 379 718 q 310 749 333 743 q 388 807 358 771 q 417 888 417 843 "},"½":{"ha":1060,"x_min":39,"x_max":954,"o":"m 949 442 q 933 506 949 478 q 892 553 918 533 q 833 582 867 572 q 760 592 799 592 q 690 585 726 592 q 615 557 653 578 l 649 488 q 747 511 703 511 q 817 492 790 511 q 844 432 844 474 q 819 352 844 392 q 757 269 794 313 q 674 173 719 225 q 590 54 629 121 l 590 0 l 954 0 l 954 88 l 735 88 l 715 85 l 728 100 q 791 181 753 142 q 864 262 829 221 q 924 347 899 303 q 949 442 949 392 m 271 429 l 271 1010 l 219 1010 l 39 913 l 79 840 l 164 883 l 164 429 l 271 429 m 219 0 l 825 1010 l 719 1010 l 114 0 l 219 0 "},"¾":{"ha":994,"x_min":33,"x_max":967,"o":"m 374 888 q 326 985 374 950 q 201 1021 278 1021 q 131 1014 167 1021 q 56 986 96 1007 l 89 917 q 193 939 149 939 q 238 928 221 939 q 261 901 254 918 q 266 885 264 894 q 265 865 268 876 q 236 816 263 835 q 175 782 210 797 l 131 764 l 140 699 q 249 675 211 699 q 288 601 288 651 q 258 531 288 563 q 175 500 229 500 q 112 508 139 500 q 60 528 85 517 l 33 457 q 92 431 54 444 q 176 418 131 418 q 264 432 224 418 q 333 471 304 446 q 377 528 361 496 q 393 599 393 561 q 382 655 393 629 q 353 699 371 681 q 313 731 336 718 q 267 749 290 743 q 344 807 315 771 q 374 888 374 843 m 532 200 l 532 121 l 765 121 q 751 148 760 133 q 732 174 743 163 q 705 194 721 186 q 669 203 689 203 l 635 203 l 804 447 l 804 0 l 900 0 l 900 121 l 967 121 l 967 201 l 900 201 l 900 588 l 792 588 l 532 200 m 271 0 l 876 1010 l 772 1010 l 167 0 l 271 0 "},"ð":{"ha":774,"x_min":44,"x_max":736,"o":"m 579 360 q 525 164 579 231 q 390 97 471 97 q 256 164 310 97 q 203 360 203 231 q 257 554 203 488 q 390 621 311 621 q 525 554 471 621 q 579 360 579 488 m 736 360 q 710 539 736 454 q 647 693 685 624 q 565 815 608 763 q 486 896 521 867 l 607 954 l 575 1021 l 419 947 q 325 1006 375 979 q 225 1057 275 1033 l 176 968 q 244 933 213 951 q 307 894 276 915 l 178 831 l 207 765 l 376 846 q 449 780 407 822 q 529 690 490 738 q 457 723 489 713 q 390 733 425 733 q 257 708 319 733 q 147 633 194 682 q 72 516 100 585 q 44 360 44 447 q 72 200 44 269 q 145 83 99 131 q 255 10 192 35 q 390 -15 318 -15 q 524 10 461 -15 q 633 85 586 36 q 708 203 681 133 q 736 360 736 272 "},"¼":{"ha":969,"x_min":39,"x_max":915,"o":"m 479 200 l 479 121 l 713 121 q 699 148 707 133 q 680 174 692 163 q 653 194 668 186 q 618 203 638 203 l 579 201 l 597 225 l 732 419 l 754 454 l 751 415 l 751 0 l 849 0 l 849 121 l 915 121 l 915 201 l 849 201 l 849 588 l 739 588 l 479 200 m 271 429 l 271 1010 l 219 1010 l 39 913 l 79 840 l 164 883 l 164 429 l 271 429 m 219 0 l 825 1010 l 719 1010 l 114 0 l 219 0 "}}}
